<?xml version="1.0" encoding="utf-8"?>
<!-- Generator: Adobe Illustrator 14.0.0, SVG Export Plug-In . SVG Version: 6.00 Build 43363)  -->
<!DOCTYPE svg PUBLIC "-//W3C//DTD SVG 1.1//EN" "http://www.w3.org/Graphics/SVG/1.1/DTD/svg11.dtd" [
	<!ENTITY ns_flows "http://ns.adobe.com/Flows/1.0/">
	<!ENTITY ns_extend "http://ns.adobe.com/Extensibility/1.0/">
	<!ENTITY ns_ai "http://ns.adobe.com/AdobeIllustrator/10.0/">
	<!ENTITY ns_graphs "http://ns.adobe.com/Graphs/1.0/">
]>
<svg version="1.1" id="Layer_1" xmlns:x="&ns_extend;" xmlns:i="&ns_ai;" xmlns:graph="&ns_graphs;"
	 xmlns="http://www.w3.org/2000/svg" xmlns:xlink="http://www.w3.org/1999/xlink" xmlns:a="http://ns.adobe.com/AdobeSVGViewerExtensions/3.0/"
	 x="0px" y="0px" width="841.89px" height="595.28px" viewBox="0 0 841.89 595.28" enable-background="new 0 0 841.89 595.28"
	 xml:space="preserve">
<rect x="316.916" y="172.841" fill="#D0D2D3" stroke="#231F20" width="39.485" height="152.361"/>
<g>
	<path fill="#FFFFFF" stroke="#303D37" stroke-width="3" d="M348.589,201.139c0,2.048-1.66,3.709-3.708,3.709h-16.157
		c-2.048,0-3.709-1.661-3.709-3.709v-16.157c0-2.048,1.661-3.709,3.709-3.709h16.157c2.048,0,3.708,1.661,3.708,3.709V201.139z"/>
	<text transform="matrix(1 0 0 1 331.7593 199.9878)" font-family="'MyriadPro-BoldCond'" font-size="23">1</text>
</g>
<g>
	<path fill="#FFFFFF" stroke="#303D37" stroke-width="3" d="M348.589,256.922c0,2.048-1.66,3.709-3.708,3.709h-16.157
		c-2.048,0-3.709-1.661-3.709-3.709v-16.157c0-2.048,1.661-3.709,3.709-3.709h16.157c2.048,0,3.708,1.661,3.708,3.709V256.922z"/>
	<text transform="matrix(1 0 0 1 331.7612 255.771)" font-family="'MyriadPro-BoldCond'" font-size="23">2</text>
</g>
<g>
	<path fill="#FFFFFF" stroke="#303D37" stroke-width="3" d="M348.587,312.704c0,2.048-1.66,3.709-3.708,3.709h-16.157
		c-2.048,0-3.709-1.661-3.709-3.709V296.55c0-2.048,1.661-3.709,3.709-3.709h16.157c2.048,0,3.708,1.661,3.708,3.709V312.704z"/>
	<text transform="matrix(1 0 0 1 331.7593 311.5547)" font-family="'MyriadPro-BoldCond'" font-size="23">3</text>
</g>
</svg>
