<?xml version="1.0" encoding="utf-8"?>
<!-- Generator: Adobe Illustrator 14.0.0, SVG Export Plug-In . SVG Version: 6.00 Build 43363)  -->
<!DOCTYPE svg PUBLIC "-//W3C//DTD SVG 1.1//EN" "http://www.w3.org/Graphics/SVG/1.1/DTD/svg11.dtd">
<svg version="1.1"
	 id="Layer_1" xmlns:dc="http://purl.org/dc/elements/1.1/" xmlns:cc="http://creativecommons.org/ns#" xmlns:rdf="http://www.w3.org/1999/02/22-rdf-syntax-ns#" xmlns:svg="http://www.w3.org/2000/svg" xmlns:inkscape="http://www.inkscape.org/namespaces/inkscape" xmlns:sodipodi="http://sodipodi.sourceforge.net/DTD/sodipodi-0.dtd" sodipodi:docname="kalle.svg" inkscape:version="0.47 r22583"
	 xmlns="http://www.w3.org/2000/svg" xmlns:xlink="http://www.w3.org/1999/xlink" x="0px" y="0px" width="367.154px"
	 height="293.109px" viewBox="0 0 367.154 293.109" enable-background="new 0 0 367.154 293.109" xml:space="preserve">
<defs>
	
	
		<inkscape:perspective  inkscape:vp_z="841.89001 : 297.64001 : 1" inkscape:vp_x="0 : 297.64001 : 1" sodipodi:type="inkscape:persp3d" inkscape:vp_y="0 : 1000 : 0" inkscape:persp3d-origin="420.94501 : 198.42668 : 1" id="perspective7135">
		</inkscape:perspective>
</defs>
<sodipodi:namedview  guidetolerance="10" gridtolerance="10" pagecolor="#ffffff" inkscape:zoom="0.79290414" inkscape:cx="240.44651" showgrid="false" objecttolerance="10" bordercolor="#666666" inkscape:cy="165.54416" borderopacity="1" inkscape:pageshadow="2" inkscape:pageopacity="0" inkscape:window-width="1199" inkscape:window-height="1024" inkscape:window-x="0" inkscape:window-y="0" inkscape:current-layer="Layer_1" inkscape:window-maximized="0" id="namedview7129" inkscape:showpageshadow="false" showborder="false">
	</sodipodi:namedview>
<g id="g6010" transform="translate(-238.291,-151.20617)">
	<path id="path6012" fill="none" stroke="#010101" d="M357.752,231.195"/>
</g>
<g id="g6014" transform="translate(-238.291,-151.20617)">
	<path id="path6016" fill="none" stroke="#010101" d="M334.429,216.664"/>
</g>
<g id="g6018" transform="translate(-238.291,-151.20617)">
	<path id="path6020" fill="none" stroke="#010101" d="M366.445,257.832"/>
</g>
<g id="g6022" transform="translate(-238.291,-151.20617)">
	<path id="path6024" fill="none" stroke="#010101" d="M334.429,216.664"/>
</g>
<g id="g6026" transform="translate(-238.291,-151.20617)">
	<path id="path6028" fill="none" stroke="#010101" d="M362.319,208.855"/>
</g>
<g id="g6030" transform="translate(-238.291,-151.20617)">
	<path id="path6032" fill="none" stroke="#010101" d="M334.429,216.664"/>
</g>
<g id="g6034" transform="translate(-238.291,-151.20617)">
	<path id="path6036" fill="#010101" d="M362.319,263.1"/>
	<path id="path6038" fill="none" stroke="#038FA2" d="M362.319,263.1"/>
</g>
<g id="g6040" transform="translate(-238.291,-151.20617)">
	<path id="path6042" fill="#010101" d="M334.823,248.021"/>
	<path id="path6044" fill="none" stroke="#038FA2" d="M334.823,248.021"/>
</g>
<g id="g6046" transform="translate(-238.291,-151.20617)">
	<path id="path6048" fill="#010101" d="M362.319,245.15"/>
	<path id="path6050" fill="none" stroke="#038FA2" d="M362.319,245.15"/>
</g>
<g id="g6052" transform="translate(-238.291,-151.20617)">
	<path id="path6054" fill="#010101" d="M334.823,248.021"/>
	<path id="path6056" fill="none" stroke="#038FA2" d="M334.823,248.021"/>
</g>
<g id="g6058" transform="translate(-238.291,-151.20617)">
	<path id="path6060" fill="#010101" d="M366.445,212.976"/>
	<path id="path6062" fill="none" stroke="#038FA2" d="M366.445,212.976"/>
</g>
<g id="g6064" transform="translate(-238.291,-151.20617)">
	<path id="path6066" fill="#010101" d="M334.823,248.021"/>
	<path id="path6068" fill="none" stroke="#038FA2" d="M334.823,248.021"/>
</g>
<g id="g6070" transform="translate(-238.291,-151.20617)">
	<g id="g6072">
		<line id="line6074" fill="none" stroke="#010101" stroke-width="1.0993" x1="376.965" y1="270.654" x2="415.49" y2="271.262"/>
		<polygon id="polygon6076" fill="#010101" points="413.262,274.381 425.229,271.377 413.363,267.995 		"/>
	</g>
</g>
<g id="g6078" transform="translate(-238.291,-151.20617)">
	<g id="g6080">
		<line id="line6082" fill="none" stroke="#010101" stroke-width="1.0993" x1="369.764" y1="236.809" x2="410.577" y2="237.416"/>
		<polygon id="polygon6084" fill="#010101" points="408.352,240.537 420.315,237.522 408.446,234.151 		"/>
	</g>
</g>
<g id="g6086" transform="translate(-238.291,-151.20617)">
	<g id="g6088">
		<line id="line6090" fill="none" stroke="#010101" stroke-width="1.0993" x1="371.181" y1="201.376" x2="411.994" y2="201.983"/>
		<polygon id="polygon6092" fill="#010101" points="409.769,205.104 421.732,202.09 409.863,198.719 		"/>
	</g>
</g>
<g id="g6094" transform="translate(-238.291,-151.20617)">
	<g id="g6096">
		<line id="line6098" fill="none" stroke="#010101" stroke-width="1.0993" x1="316.406" y1="236.412" x2="354.931" y2="237.02"/>
		<polygon id="polygon6100" fill="#010101" points="352.703,240.14 364.669,237.135 352.804,233.753 		"/>
	</g>
</g>
<g id="g6102" transform="translate(-238.291,-151.20617)">
	<g id="g6104">
		<line id="line6106" fill="none" stroke="#010101" stroke-width="1.0993" x1="316.406" y1="236.412" x2="362.319" y2="263.1"/>
		<polygon id="polygon6108" fill="#010101" points="358.851,264.731 370.759,267.961 362.061,259.21 		"/>
	</g>
</g>
<g id="g6110" transform="translate(-238.291,-151.20617)">
	<g id="g6112">
		<line id="line6114" fill="none" stroke="#010101" stroke-width="1.0993" x1="316.406" y1="236.412" x2="360.728" y2="212.5"/>
		<polygon id="polygon6116" fill="#010101" points="360.309,216.311 369.281,207.842 357.276,210.69 		"/>
	</g>
</g>
<g id="g6118" transform="translate(-238.291,-151.20617)">
	<g id="g6120">
		<line id="line6122" fill="none" stroke="#010101" stroke-width="1.0993" x1="316.406" y1="236.412" x2="363.831" y2="177.118"/>
		<polygon id="polygon6124" fill="#010101" points="364.933,180.79 369.884,169.488 359.946,176.8 		"/>
	</g>
</g>
<g id="g6126" transform="translate(-238.291,-151.20617)">
	<g id="g6128">
		<line id="line6130" fill="none" stroke="#010101" stroke-width="1.0993" x1="443.293" y1="271.073" x2="475.708" y2="270.648"/>
		<polygon id="polygon6132" fill="#010101" points="473.57,273.831 485.445,270.482 473.486,267.444 		"/>
	</g>
</g>
<g id="g6134" transform="translate(-238.291,-151.20617)">
	<g id="g6136">
		<line id="line6138" fill="none" stroke="#010101" stroke-width="1.0993" x1="448.018" y1="235.64" x2="475.708" y2="235.214"/>
		<polygon id="polygon6140" fill="#010101" points="473.579,238.401 485.445,235.025 473.48,232.016 		"/>
	</g>
</g>
<g id="g6142" transform="translate(-238.291,-151.20617)">
	<g id="g6144">
		<line id="line6146" fill="none" stroke="#010101" stroke-width="1.0993" x1="449.142" y1="200.206" x2="475.708" y2="199.781"/>
		<polygon id="polygon6148" fill="#010101" points="473.581,202.97 485.445,199.587 473.479,196.584 		"/>
	</g>
</g>
<g id="g6150" transform="translate(-238.291,-151.20617)">
	<g id="g6152">
		<line id="line6154" fill="none" stroke="#010101" stroke-width="1.0993" x1="451.086" y1="165.744" x2="476.006" y2="177.118"/>
		<polygon id="polygon6156" fill="#010101" points="472.715,179.083 484.881,181.127 475.366,173.273 		"/>
	</g>
</g>
<g id="g6158" transform="translate(-238.291,-151.20617)">
	<g id="g6160">
		<line id="line6162" fill="none" stroke="#010101" stroke-width="1.0993" x1="452.702" y1="430.533" x2="477.846" y2="430.827"/>
		<polygon id="polygon6164" fill="#010101" points="475.631,433.956 487.584,430.902 475.706,427.569 		"/>
	</g>
</g>
<g id="g6166" transform="translate(-238.291,-151.20617)">
	<g id="g6168">
		<line id="line6170" fill="none" stroke="#010101" stroke-width="1.0993" x1="453.124" y1="396.195" x2="477.846" y2="395.393"/>
		<polygon id="polygon6172" fill="#010101" points="475.77,398.615 487.579,395.038 475.563,392.232 		"/>
	</g>
</g>
<g id="g6174" transform="translate(-238.291,-151.20617)">
	<g id="g6176">
		<line id="line6178" fill="none" stroke="#010101" stroke-width="1.0993" x1="455.486" y1="360.385" x2="477.846" y2="359.96"/>
		<polygon id="polygon6180" fill="#010101" points="475.727,363.155 487.583,359.736 475.605,356.77 		"/>
	</g>
</g>
<path id="path6182" fill="#DBDBDA" stroke="#010101" d="M366.654,138.099c0,1.565-1.271,2.836-2.836,2.836H248.939
	c-1.563,0-2.834-1.271-2.834-2.836V16.769c0-1.565,1.271-2.834,2.834-2.834h114.879c1.565,0,2.836,1.269,2.836,2.834V138.099z"/>
<path id="path6184" fill="#DBDBDA" stroke="#010101" d="M102.567,114.873c0,1.564-1.27,2.834-2.835,2.834H6.112
	c-1.565,0-2.835-1.27-2.835-2.834v-64.64c0-1.564,1.27-2.834,2.835-2.834h93.62c1.565,0,2.835,1.27,2.835,2.834V114.873z"/>
<g id="g2833_1_" transform="translate(-238.291,-151.20617)">
	
		<rect id="rect2835_1_" x="368.266" y="192.315" transform="matrix(-0.7071 -0.7071 0.7071 -0.7071 502.2198 611.734)" fill="#FBB041" stroke="#010101" stroke-width="1.589" stroke-linejoin="round" width="19.077" height="19.077"/>
	<g id="g2837_1_">
		<polyline id="polyline2839_1_" fill="none" stroke="#010101" stroke-width="1.589" points="370.777,195.234 373.896,195.234 
			373.896,205.872 376.857,205.872 		"/>
		<line id="line2841_1_" fill="none" stroke="#010101" stroke-width="1.589" x1="378.553" y1="205.872" x2="380.423" y2="205.872"/>
		<line id="line2843_1_" fill="none" stroke="#010101" stroke-width="1.589" x1="382.027" y1="205.872" x2="383.989" y2="205.872"/>
	</g>
</g>
<g id="g3018_1_" transform="translate(-238.291,-151.20617)">
	
		<radialGradient id="path3051_3_" cx="213.6841" cy="476.6659" r="6.3584" gradientTransform="matrix(1 0 0 -1 286.9785 876.3162)" gradientUnits="userSpaceOnUse">
		<stop  offset="0.004" style="stop-color:#EC2527"/>
		<stop  offset="0.1789" style="stop-color:#EC2728"/>
		<stop  offset="0.3115" style="stop-color:#EE302B"/>
		<stop  offset="0.4302" style="stop-color:#EF3C33"/>
		<stop  offset="0.5408" style="stop-color:#F04A3E"/>
		<stop  offset="0.6457" style="stop-color:#F15C52"/>
		<stop  offset="0.745" style="stop-color:#F26D67"/>
		<stop  offset="0.8407" style="stop-color:#F38082"/>
		<stop  offset="0.8424" style="stop-color:#F48283"/>
		<stop  offset="0.8635" style="stop-color:#F17E7F"/>
		<stop  offset="0.889" style="stop-color:#EB7574"/>
		<stop  offset="0.9169" style="stop-color:#E56964"/>
		<stop  offset="0.9464" style="stop-color:#DB5651"/>
		<stop  offset="0.9769" style="stop-color:#D13D36"/>
		<stop  offset="1" style="stop-color:#C82128"/>
	</radialGradient>
	<path id="path3051_1_" fill="url(#path3051_3_)" stroke="#010101" stroke-width="1.4485" d="M507.021,404.787
		c0,0.679-0.547,1.222-1.224,1.222h-10.271c-0.676,0-1.223-0.543-1.223-1.222v-10.269c0-0.68,0.547-1.227,1.223-1.227h10.271
		c0.677,0,1.224,0.547,1.224,1.227V404.787z"/>
	
		<radialGradient id="path3084_3_" cx="217.4175" cy="484.9403" r="6.3589" gradientTransform="matrix(1 0 0 -1 286.9785 876.3162)" gradientUnits="userSpaceOnUse">
		<stop  offset="0.004" style="stop-color:#EC2527"/>
		<stop  offset="0.1789" style="stop-color:#EC2728"/>
		<stop  offset="0.3115" style="stop-color:#EE302B"/>
		<stop  offset="0.4302" style="stop-color:#EF3C33"/>
		<stop  offset="0.5408" style="stop-color:#F04A3E"/>
		<stop  offset="0.6457" style="stop-color:#F15C52"/>
		<stop  offset="0.745" style="stop-color:#F26D67"/>
		<stop  offset="0.8407" style="stop-color:#F38082"/>
		<stop  offset="0.8424" style="stop-color:#F48283"/>
		<stop  offset="0.8635" style="stop-color:#F17E7F"/>
		<stop  offset="0.889" style="stop-color:#EB7574"/>
		<stop  offset="0.9169" style="stop-color:#E56964"/>
		<stop  offset="0.9464" style="stop-color:#DB5651"/>
		<stop  offset="0.9769" style="stop-color:#D13D36"/>
		<stop  offset="1" style="stop-color:#C82128"/>
	</radialGradient>
	<path id="path3084_1_" fill="url(#path3084_3_)" stroke="#010101" stroke-width="1.4485" d="M510.754,396.509
		c0,0.68-0.547,1.227-1.223,1.227H499.26c-0.676,0-1.223-0.547-1.223-1.227V386.24c0-0.679,0.547-1.224,1.223-1.224h10.271
		c0.676,0,1.223,0.545,1.223,1.224V396.509z"/>
	
		<radialGradient id="path3119_3_" cx="207.1528" cy="480.5126" r="6.3589" gradientTransform="matrix(1 0 0 -1 286.9785 876.3162)" gradientUnits="userSpaceOnUse">
		<stop  offset="0.004" style="stop-color:#EC2527"/>
		<stop  offset="0.1789" style="stop-color:#EC2728"/>
		<stop  offset="0.3115" style="stop-color:#EE302B"/>
		<stop  offset="0.4302" style="stop-color:#EF3C33"/>
		<stop  offset="0.5408" style="stop-color:#F04A3E"/>
		<stop  offset="0.6457" style="stop-color:#F15C52"/>
		<stop  offset="0.745" style="stop-color:#F26D67"/>
		<stop  offset="0.8407" style="stop-color:#F38082"/>
		<stop  offset="0.8424" style="stop-color:#F48283"/>
		<stop  offset="0.8635" style="stop-color:#F17E7F"/>
		<stop  offset="0.889" style="stop-color:#EB7574"/>
		<stop  offset="0.9169" style="stop-color:#E56964"/>
		<stop  offset="0.9464" style="stop-color:#DB5651"/>
		<stop  offset="0.9769" style="stop-color:#D13D36"/>
		<stop  offset="1" style="stop-color:#C82128"/>
	</radialGradient>
	<path id="path3119_1_" fill="url(#path3119_3_)" stroke="#010101" stroke-width="1.4485" d="M500.491,400.936
		c0,0.679-0.548,1.226-1.228,1.226h-10.269c-0.68,0-1.223-0.547-1.223-1.226v-10.27c0-0.679,0.543-1.222,1.223-1.222h10.269
		c0.68,0,1.228,0.543,1.228,1.222V400.936z"/>
</g>
<g id="key1_1_" transform="translate(-243.34176,201.33707)">
	
		<linearGradient id="rect2168_2_" gradientUnits="userSpaceOnUse" x1="58.6308" y1="282.4703" x2="58.6308" y2="300.3968" gradientTransform="matrix(1 0 0 1 258.167 -395.6924)">
		<stop  offset="0" style="stop-color:#D8D9D8"/>
		<stop  offset="1" style="stop-color:#48494A"/>
	</linearGradient>
	<path id="rect2168_1_" fill="url(#rect2168_2_)" stroke="#010101" stroke-width="1.3911" d="M309.415-113.173h14.765
		c1.154,0,2.088,0.935,2.088,2.088v13.652c0,1.152-0.935,2.088-2.088,2.088h-14.765c-1.154,0-2.088-0.936-2.088-2.088v-13.652
		C307.325-112.24,308.261-113.173,309.415-113.173z"/>
	
		<linearGradient id="rect3157_2_" gradientUnits="userSpaceOnUse" x1="81.8642" y1="279.734" x2="94.6691" y2="279.734" gradientTransform="matrix(0.8317 0 0 0.8368 243.4262 -338.6031)">
		<stop  offset="0" style="stop-color:#C1C1C2"/>
		<stop  offset="0.5" style="stop-color:#E7E7E7"/>
		<stop  offset="1" style="stop-color:#C1C1C2"/>
	</linearGradient>
	<path id="rect3157_1_" fill="url(#rect3157_2_)" stroke="#F7F9F9" stroke-width="0.4637" d="M311.685-110.659h10.086
		c0.793,0,1.438,0.643,1.438,1.434v9.4c0,0.793-0.648,1.438-1.438,1.438h-10.086c-0.797,0-1.438-0.647-1.438-1.438v-9.4
		C310.246-110.017,310.89-110.659,311.685-110.659z"/>
	<g id="g4628_1_" enable-background="new    ">
		<path id="path4630_1_" fill="#010101" d="M318.801-101.169v-2.086c0-0.301,0.133-0.516,0.513-0.516
			c0.384,0,0.518,0.215,0.518,0.516v2.603c0,0.371-0.248,0.516-0.518,0.516h-4.067c-0.27,0-0.518-0.145-0.518-0.516
			s0.25-0.517,0.518-0.517h1.517v-5.973h-1.517c-0.27,0-0.518-0.145-0.518-0.516s0.25-0.517,0.518-0.517h2.55v7.004L318.801-101.169
			L318.801-101.169z"/>
	</g>
	
		<line id="line3211_1_" fill="none" stroke="#020202" stroke-width="0.9274" x1="326.27" y1="-104.523" x2="339.874" y2="-104.523"/>
</g>
<g id="key1_2_" transform="translate(-243.34176,201.33707)">
	
		<linearGradient id="rect2168_3_" gradientUnits="userSpaceOnUse" x1="58.2363" y1="251.1129" x2="58.2363" y2="269.0395" gradientTransform="matrix(1 0 0 1 258.167 -395.6924)">
		<stop  offset="0" style="stop-color:#D8D9D8"/>
		<stop  offset="1" style="stop-color:#48494A"/>
	</linearGradient>
	<path id="rect2168_4_" fill="url(#rect2168_3_)" stroke="#010101" stroke-width="1.3911" d="M309.021-144.531h14.765
		c1.154,0,2.088,0.935,2.088,2.088v13.652c0,1.152-0.935,2.089-2.088,2.089h-14.765c-1.154,0-2.088-0.937-2.088-2.089v-13.652
		C306.931-143.596,307.868-144.531,309.021-144.531z"/>
	
		<linearGradient id="rect3157_3_" gradientUnits="userSpaceOnUse" x1="81.3916" y1="242.2603" x2="94.1961" y2="242.2603" gradientTransform="matrix(0.8317 0 0 0.8368 243.4262 -338.6031)">
		<stop  offset="0" style="stop-color:#C1C1C2"/>
		<stop  offset="0.5" style="stop-color:#E7E7E7"/>
		<stop  offset="1" style="stop-color:#C1C1C2"/>
	</linearGradient>
	<path id="rect3157_4_" fill="url(#rect3157_3_)" stroke="#F7F9F9" stroke-width="0.4637" d="M311.291-142.017h10.086
		c0.793,0,1.438,0.644,1.438,1.435v9.4c0,0.793-0.648,1.439-1.438,1.439h-10.086c-0.797,0-1.438-0.648-1.438-1.439v-9.4
		C309.853-141.373,310.496-142.017,311.291-142.017z"/>
	<g id="g4628_2_" enable-background="new    ">
		<path id="path4630_2_" fill="#010101" d="M318.408-132.526v-2.086c0-0.301,0.133-0.517,0.513-0.517
			c0.384,0,0.518,0.216,0.518,0.517v2.601c0,0.371-0.248,0.517-0.518,0.517h-4.067c-0.27,0-0.518-0.146-0.518-0.517
			s0.25-0.515,0.518-0.515h1.517v-5.975h-1.517c-0.27,0-0.518-0.145-0.518-0.515c0-0.371,0.25-0.516,0.518-0.516h2.55v7.004
			L318.408-132.526L318.408-132.526z"/>
	</g>
	
		<line id="line3211_2_" fill="none" stroke="#020202" stroke-width="0.9274" x1="325.876" y1="-135.879" x2="339.48" y2="-135.879"/>
</g>
<g id="g3263_1_" transform="translate(-238.291,-151.20617)">
	
		<rect id="rect3265_1_" x="368.203" y="227.478" transform="matrix(-0.7071 -0.7071 0.7071 -0.7071 477.3432 671.9219)" fill="#FBB041" stroke="#010101" stroke-width="1.6035" stroke-linejoin="round" width="19.25" height="19.249"/>
	<g id="g3267_1_">
		<polyline id="polyline3269_1_" fill="none" stroke="#010101" stroke-width="1.6035" points="384.468,230.428 381.483,230.428 
			381.483,241.326 378.655,241.326 		"/>
		
			<line id="line3271_1_" fill="none" stroke="#010101" stroke-width="1.6035" x1="377.033" y1="241.326" x2="375.245" y2="241.326"/>
		
			<line id="line3273_1_" fill="none" stroke="#010101" stroke-width="1.6035" x1="373.712" y1="241.326" x2="371.836" y2="241.326"/>
	</g>
</g>
<g id="layer1-1" transform="translate(-238.291,-151.20617)">
	<g id="g27745" transform="translate(-581.5567,-744.8944)">
		<path id="path18503" fill="#EC2727" stroke="#010101" stroke-width="1.1665" d="M1029.574,1015.543
			c0.011,6.563-5.299,11.886-11.86,11.893c-6.558,0.01-11.879-5.306-11.885-11.862c0-0.01,0-0.021,0-0.029
			c-0.011-6.558,5.303-11.88,11.86-11.887c6.558-0.01,11.877,5.305,11.885,11.862
			C1029.574,1015.529,1029.574,1015.536,1029.574,1015.543z"/>
		<g id="g27711">
			
				<linearGradient id="path22115_1_" gradientUnits="userSpaceOnUse" x1="3097.5718" y1="1018.3362" x2="3105.1692" y2="1026.3453" gradientTransform="matrix(0.9355 0 0 0.9355 -1878.7014 64.7722)">
				<stop  offset="0" style="stop-color:#020202"/>
				<stop  offset="1" style="stop-color:#FFFFFF"/>
			</linearGradient>
			<linearGradient id="path22115_2_" gradientUnits="userSpaceOnUse" x1="2727.9946" y1="1001.738" x2="2714.3774" y2="987.673">
				<stop  offset="0" style="stop-color:#020202"/>
				<stop  offset="1" style="stop-color:#FFFFFF"/>
			</linearGradient>
			<path id="path22115" fill="url(#path22115_1_)" stroke="url(#path22115_2_)" stroke-width="0.5833" d="M1015.49,1009.198
				c-2.854,0.934-4.926,3.598-4.926,6.771c0,3.938,3.198,7.14,7.142,7.14c3.942,0,7.143-3.198,7.143-7.14
				c0-3.17-2.091-5.837-4.94-6.771v2.551c1.52,0.8,2.584,2.379,2.584,4.221c0,2.639-2.146,4.787-4.787,4.787
				c-2.64,0-4.787-2.148-4.787-4.787c0-1.839,1.053-3.415,2.574-4.221v-2.551l0,0H1015.49z"/>
			
				<linearGradient id="path22113_1_" gradientUnits="userSpaceOnUse" x1="3098.0015" y1="1014.2249" x2="3100.7886" y2="1016.8611" gradientTransform="matrix(0.9355 0 0 0.9355 -1878.7014 64.7722)">
				<stop  offset="0" style="stop-color:#020202"/>
				<stop  offset="1" style="stop-color:#FFFFFF"/>
			</linearGradient>
			<linearGradient id="path22113_2_" gradientUnits="userSpaceOnUse" x1="2722.5708" y1="981.9475" x2="2716.05" y2="975.7181">
				<stop  offset="0" style="stop-color:#020202"/>
				<stop  offset="1" style="stop-color:#FFFFFF"/>
			</linearGradient>
			<path id="path22113" fill="url(#path22113_1_)" stroke="url(#path22113_2_)" stroke-width="0.5833" d="M1016.501,1007.665v8.476
				h2.412v-8.476H1016.501z"/>
		</g>
		
			<linearGradient id="path18509_1_" gradientUnits="userSpaceOnUse" x1="3144.6294" y1="1008.2366" x2="3153.0439" y2="1019.5201" gradientTransform="matrix(0.8135 0 0 0.8135 -1548.1582 185.0128)">
			<stop  offset="0" style="stop-color:#FFFFFF"/>
			<stop  offset="1" style="stop-color:#FFFFFF;stop-opacity:0"/>
		</linearGradient>
		<path id="path18509" opacity="0.8" fill="url(#path18509_1_)" enable-background="new    " d="M1029.137,1015.543
			c0.01,6.315-5.107,11.441-11.424,11.447c-6.317,0.01-11.438-5.104-11.447-11.422c0-0.011,0-0.021,0-0.027
			c-0.01-6.314,5.107-11.438,11.424-11.443c6.314-0.011,11.439,5.104,11.447,11.422
			C1029.137,1015.529,1029.137,1015.536,1029.137,1015.543z"/>
		
			<linearGradient id="path20303_1_" gradientUnits="userSpaceOnUse" x1="3166.8198" y1="1033.655" x2="3160.8745" y2="1027.71" gradientTransform="matrix(0.8135 0 0 0.8135 -1548.1582 185.0128)">
			<stop  offset="0" style="stop-color:#FFFFFF"/>
			<stop  offset="1" style="stop-color:#FFFFFF;stop-opacity:0"/>
		</linearGradient>
		<path id="path20303" opacity="0.8" fill="url(#path20303_1_)" enable-background="new    " d="M1029.137,1015.543
			c0.01,6.315-5.107,11.441-11.424,11.447c-6.317,0.01-11.438-5.104-11.447-11.422c0-0.011,0-0.021,0-0.027
			c-0.01-6.314,5.107-11.438,11.424-11.443c6.314-0.011,11.439,5.104,11.447,11.422
			C1029.137,1015.529,1029.137,1015.536,1029.137,1015.543z"/>
		
			<linearGradient id="path19408_1_" gradientUnits="userSpaceOnUse" x1="2707.1167" y1="1031.0486" x2="2707.1375" y2="1031.66" gradientTransform="matrix(5.4988 -4.4512 1.8866 2.3306 -15820.3545 10654.042)">
			<stop  offset="0" style="stop-color:#FFFFFF"/>
			<stop  offset="1" style="stop-color:#FFFFFF;stop-opacity:0"/>
		</linearGradient>
		<path id="path19408" opacity="0.8" fill="url(#path19408_1_)" enable-background="new    " d="M1014.651,1005.499
			c0.497,0.613-0.479,2.229-2.186,3.607c-1.7,1.38-3.487,1.997-3.983,1.384c-0.497-0.613,0.479-2.233,2.187-3.609
			C1012.37,1005.503,1014.157,1004.883,1014.651,1005.499L1014.651,1005.499L1014.651,1005.499z"/>
	</g>
</g>
<g id="g3319_1_" transform="translate(-238.291,-151.20617)">
	<g id="g3321_1_">
		
			<line id="line3323_1_" fill="none" stroke="#010101" stroke-width="2.9369" stroke-linecap="round" x1="422.222" y1="243.229" x2="422.222" y2="239.324"/>
		
			<line id="line3325_1_" fill="none" stroke="#010101" stroke-width="2.9369" stroke-linecap="round" x1="426.904" y1="243.229" x2="426.904" y2="236.156"/>
		
			<line id="line3327_1_" fill="none" stroke="#010101" stroke-width="2.9369" stroke-linecap="round" x1="431.581" y1="243.229" x2="431.581" y2="232.993"/>
		
			<line id="line3329_1_" fill="none" stroke="#010101" stroke-width="2.9369" stroke-linecap="round" x1="436.258" y1="243.229" x2="436.258" y2="229.825"/>
		
			<line id="line3331_1_" fill="none" stroke="#010101" stroke-width="2.9369" stroke-linecap="round" x1="440.939" y1="243.229" x2="440.939" y2="226.663"/>
		
			<line id="line3333_1_" fill="none" stroke="#010101" stroke-width="2.9369" stroke-linecap="round" x1="445.616" y1="243.229" x2="445.616" y2="223.5"/>
	</g>
	<g id="g3_2_">
		<path id="path5_2_" fill="#5B9B43" d="M429.515,241.709c0,3.334,2.616,6.212,5.937,6.519c3.325,0.309,6.438-2.032,7.049-5.319
			c0.605-3.29-1.443-6.601-4.666-7.503c-3.224-0.902-6.709,0.852-7.895,3.98C429.655,240.125,429.515,240.915,429.515,241.709"/>
		
			<radialGradient id="path12_1_" cx="124.1353" cy="117.2201" r="6.0833" gradientTransform="matrix(1 0 0 1 311.9229 124.4873)" gradientUnits="userSpaceOnUse">
			<stop  offset="0" style="stop-color:#D3E494"/>
			<stop  offset="1" style="stop-color:#86C442"/>
		</radialGradient>
		<path id="path12_2_" fill="url(#path12_1_)" d="M429.975,241.709c0,3.315,2.77,6.082,6.085,6.082c3.313,0,6.081-2.769,6.081-6.082
			c0-3.316-2.77-6.085-6.081-6.085C432.745,235.622,429.975,238.392,429.975,241.709"/>
		<path id="path14_2_" fill="#69BA45" d="M430.561,239.344c-0.492,2.866,1.221,5.743,3.973,6.682
			c2.918,0.994,6.201-0.478,7.424-3.308c-0.588,3.424-4.104,5.672-7.455,4.771C431.04,246.552,429.136,242.641,430.561,239.344"/>
		<path id="path16_2_" fill="#B4D336" d="M432.258,239.007c0.846,0.177,1.81-1.02,2.539-1.318c1.361-0.567,3.065-0.305,4.301,0.465
			c1.307,0.815,2.234,2.384,2.379,3.924c0,0.004,0,0.005,0,0.002c-0.096-0.936-0.031-1.812-0.387-2.712
			c-0.586-1.493-1.856-2.659-3.389-3.132c-1.589-0.485-3.318-0.176-4.688,0.75C432.593,237.274,430.97,238.741,432.258,239.007"/>
		<path id="path18_2_" fill="#729C3F" d="M439.006,239.422c-1.16,1.004-2.319,2.011-3.481,3.017c-0.569-0.658-1.14-1.315-1.71-1.973
			c-0.225-0.26-0.436-0.568-0.785-0.663c-0.574-0.152-1.316,0.368-1.438,0.942c-0.162,0.776,0.93,1.648,1.373,2.162
			c0.507,0.585,0.996,1.191,1.5,1.776c0.695,0.798,1.308,0.511,1.97-0.063c0.746-0.646,1.494-1.291,2.237-1.936
			c0.584-0.508,1.171-1.015,1.754-1.521C441.433,240.29,440.006,238.55,439.006,239.422 M435.575,242.623
			c0.606-0.525,1.217-1.056,1.825-1.582c0.571-0.495,1.198-1.266,1.888-1.602c0.596-0.285,1.387,0.396,1.344,1.021
			c-0.028,0.373-0.322,0.579-0.577,0.803c-0.788,0.682-1.577,1.36-2.361,2.045c-0.603,0.519-1.196,1.032-1.796,1.555
			c-0.762,0.658-1.342-0.376-1.775-0.879c-0.68-0.784-1.356-1.566-2.037-2.352c-0.282-0.327-0.49-0.729-0.194-1.142
			c0.339-0.466,1.032-0.791,1.483-0.273C433.646,240.533,435.375,242.753,435.575,242.623"/>
		<path id="path20_2_" fill="#FFFFFF" d="M440.504,239.835c-0.924-1.176-1.842,0-2.629,0.68c-0.787,0.685-1.57,1.362-2.358,2.044
			c-0.487-0.558-0.974-1.118-1.461-1.68c-0.604-0.702-1.142-1.423-2.065-0.621c-0.797,0.693,0.021,1.429,0.498,1.974
			c0.592,0.688,1.188,1.371,1.781,2.06c0.459,0.529,0.971,1.254,1.721,0.604c0.551-0.478,1.1-0.952,1.65-1.428
			c0.705-0.613,1.415-1.224,2.119-1.838C440.258,241.19,441.151,240.578,440.504,239.835"/>
	</g>
</g>
<g id="g3347_1_" transform="translate(-238.291,-151.20617)">
	<g id="g3349_1_">
		
			<line id="line3351_1_" fill="none" stroke="#010101" stroke-width="2.8605" stroke-linecap="round" x1="422.236" y1="208.808" x2="422.236" y2="205.143"/>
		
			<line id="line3353_1_" fill="none" stroke="#010101" stroke-width="2.8605" stroke-linecap="round" x1="426.797" y1="208.808" x2="426.797" y2="202.172"/>
		
			<line id="line3355_1_" fill="none" stroke="#010101" stroke-width="2.8605" stroke-linecap="round" x1="431.35" y1="208.808" x2="431.35" y2="199.202"/>
		
			<line id="line3357_1_" fill="none" stroke="#010101" stroke-width="2.8605" stroke-linecap="round" x1="435.907" y1="208.808" x2="435.907" y2="196.231"/>
		
			<line id="line3359_1_" fill="none" stroke="#010101" stroke-width="2.8605" stroke-linecap="round" x1="440.465" y1="208.808" x2="440.465" y2="193.263"/>
		
			<line id="line3361_1_" fill="none" stroke="#010101" stroke-width="2.8605" stroke-linecap="round" x1="445.021" y1="208.808" x2="445.021" y2="190.294"/>
	</g>
	<g id="g3_3_">
		<path id="path5_3_" fill="#971D20" d="M429.282,207.111c0,3.214,2.522,5.991,5.727,6.284c3.205,0.296,6.205-1.959,6.795-5.129
			c0.587-3.168-1.391-6.362-4.499-7.233c-3.106-0.872-6.464,0.825-7.609,3.842C429.422,205.586,429.282,206.346,429.282,207.111"/>
		
			<radialGradient id="path12_6_" cx="123.6724" cy="82.6234" r="5.865" gradientTransform="matrix(1 0 0 1 311.9229 124.4873)" gradientUnits="userSpaceOnUse">
			<stop  offset="0" style="stop-color:#F2888A"/>
			<stop  offset="1" style="stop-color:#D82F28"/>
		</radialGradient>
		<path id="path12_3_" fill="url(#path12_6_)" d="M429.731,207.111c0,3.196,2.665,5.865,5.861,5.865
			c3.199,0,5.867-2.669,5.867-5.865c0-3.195-2.668-5.866-5.867-5.866C432.395,201.247,429.731,203.916,429.731,207.111"/>
		<path id="path14_3_" fill="#B32025" d="M430.295,204.832c-0.476,2.764,1.178,5.539,3.828,6.442
			c2.813,0.957,5.979-0.457,7.155-3.184c-0.565,3.299-3.957,5.467-7.187,4.595C430.758,211.784,428.918,208.012,430.295,204.832"/>
		<path id="path16_3_" fill="#EF5A58" d="M431.93,204.507c0.811,0.168,1.744-0.979,2.445-1.271c1.317-0.547,2.957-0.292,4.147,0.451
			c1.261,0.788,2.154,2.3,2.293,3.778c0,0.002,0,0.004,0,0.002c-0.094-0.896-0.03-1.738-0.373-2.606
			c-0.565-1.443-1.789-2.57-3.271-3.02c-1.526-0.469-3.197-0.173-4.516,0.722C432.252,202.835,430.69,204.25,431.93,204.507"/>
		<path id="path18_3_" fill="#FFFFFF" d="M439.081,208.748c-0.521-0.522-1.045-1.048-1.564-1.568
			c-0.139-0.142,1.146-1.275,1.328-1.464c0.713-0.713,0.039-1.148-0.523-1.71c-0.268-0.264-0.635-0.687-1.017-0.305
			c-0.283,0.177-0.532,0.533-0.769,0.767c-0.277,0.278-0.559,0.558-0.834,0.834c-0.068,0.067-0.449-0.389-0.516-0.452
			c-0.378-0.379-1.294-1.716-1.902-1.106c-0.363,0.363-1.574,1.192-0.996,1.769c0.529,0.535,1.067,1.067,1.604,1.603
			c-0.428,0.426-2.254,1.727-1.592,2.386c0.342,0.343,0.722,0.903,1.156,1.123c0.5,0.25,1.061-0.57,1.354-0.862
			c0.13-0.132,0.783-0.945,0.928-0.799c0.442,0.443,0.887,0.887,1.331,1.332c0.419,0.419,0.739,0.445,1.171,0.014
			C438.551,209.992,439.598,209.265,439.081,208.748"/>
		<path id="path20_3_" fill="#971D20" d="M433.678,203.493c-0.412,0-0.814,0.584-1.072,0.84c-0.33,0.33-0.836,0.747-0.361,1.225
			c0.328,0.329,0.659,0.656,0.986,0.984c0.24,0.239,0.691,0.455,0.418,0.73c-0.438,0.434-2.076,1.587-1.395,2.271
			c0.313,0.312,0.627,0.622,0.938,0.938c0.435,0.432,0.795,0.181,1.144-0.167c0.367-0.365,0.74-0.739,1.11-1.11
			c0.333-0.332,0.384-0.063,0.701,0.259c0.351,0.347,0.694,0.689,1.045,1.041c0.449,0.449,0.827,0.108,1.17-0.236
			c0.269-0.269,0.739-0.589,0.886-0.946c0.205-0.49-0.438-0.936-0.736-1.233c-0.318-0.317-0.637-0.637-0.957-0.956
			c-0.037-0.037,0.779-0.814,0.859-0.894c0.334-0.335,1.248-0.979,0.715-1.51c-0.256-0.38-0.705-0.704-1.028-1.028
			c-0.708-0.706-1.976,1.095-2.429,1.551c-0.324-0.328-0.649-0.654-0.977-0.978C434.441,204.023,434.075,203.496,433.678,203.493
			 M433.366,210.484c-0.432-0.431-1.59-1.173-0.964-1.801c0.205-0.205,1.64-1.499,1.507-1.63c-0.322-0.321-0.646-0.644-0.967-0.966
			c-0.222-0.222-0.775-0.604-0.775-0.959c0-0.367,0.578-0.762,0.805-0.986c0.279-0.279,0.645-0.773,1.052-0.367
			c0.158,0.158,1.636,1.654,1.649,1.641c0.522-0.521,1.057-1.268,1.668-1.668c0.408-0.408,0.856,0.226,1.115,0.486
			c0.268,0.265,1.006,0.784,0.584,1.208c-0.4,0.617-1.148,1.146-1.668,1.669c-0.002,0.001-0.004,0.003-0.006,0.005
			c0.52,0.525,1.271,1.056,1.674,1.674c0.424,0.425-0.316,0.946-0.584,1.208c-0.285,0.289-0.711,0.896-1.146,0.46
			c-0.22-0.22-1.576-1.715-1.707-1.584C435.265,209.212,433.903,211.027,433.366,210.484"/>
	</g>
</g>
<g id="g3375_1_" transform="translate(-238.291,-151.20617)">
	<g id="g3377_1_">
		<g id="g3379_1_">
			
				<radialGradient id="path3410_2_" cx="214.124" cy="603.7997" r="10.3559" gradientTransform="matrix(1 0 0 -1 286.9785 876.3162)" gradientUnits="userSpaceOnUse">
				<stop  offset="0.004" style="stop-color:#FFF0E0"/>
				<stop  offset="0.1456" style="stop-color:#FFF0DE"/>
				<stop  offset="0.253" style="stop-color:#FEF0D8"/>
				<stop  offset="0.3492" style="stop-color:#FDF0CC"/>
				<stop  offset="0.4388" style="stop-color:#FCEEBA"/>
				<stop  offset="0.5239" style="stop-color:#FBEDA3"/>
				<stop  offset="0.6055" style="stop-color:#FAEB88"/>
				<stop  offset="0.6829" style="stop-color:#F9EB63"/>
				<stop  offset="0.7455" style="stop-color:#F8ED34"/>
				<stop  offset="0.7934" style="stop-color:#F9E733"/>
				<stop  offset="0.8515" style="stop-color:#F9DF39"/>
				<stop  offset="0.9148" style="stop-color:#FACE3C"/>
				<stop  offset="0.9815" style="stop-color:#FAB73E"/>
				<stop  offset="1" style="stop-color:#FBB041"/>
			</radialGradient>
			<path id="path3410_1_" fill="url(#path3410_2_)" d="M494.186,279.195c4.609,4.868,12.289,5.077,17.154,0.47l-16.689-17.621
				C489.792,266.652,489.581,274.333,494.186,279.195z"/>
			
				<radialGradient id="path3443_2_" cx="217.9126" cy="607.1219" r="10.3566" gradientTransform="matrix(1 0 0 -1 286.9785 876.3162)" gradientUnits="userSpaceOnUse">
				<stop  offset="0.004" style="stop-color:#EC2527"/>
				<stop  offset="0.1637" style="stop-color:#EC2728"/>
				<stop  offset="0.2848" style="stop-color:#EE302B"/>
				<stop  offset="0.3932" style="stop-color:#EF3C33"/>
				<stop  offset="0.4942" style="stop-color:#F04A3E"/>
				<stop  offset="0.5901" style="stop-color:#F15C52"/>
				<stop  offset="0.6808" style="stop-color:#F26D67"/>
				<stop  offset="0.7682" style="stop-color:#F38082"/>
				<stop  offset="0.7697" style="stop-color:#F48283"/>
				<stop  offset="0.8004" style="stop-color:#F17E7F"/>
				<stop  offset="0.8378" style="stop-color:#EB7574"/>
				<stop  offset="0.8785" style="stop-color:#E56964"/>
				<stop  offset="0.9216" style="stop-color:#DB5651"/>
				<stop  offset="0.9662" style="stop-color:#D13D36"/>
				<stop  offset="1" style="stop-color:#C82128"/>
			</radialGradient>
			<path id="path3443_1_" fill="url(#path3443_2_)" d="M511.807,262.509c-4.609-4.859-12.287-5.069-17.156-0.465l16.689,17.621
				C516.206,275.06,516.417,267.378,511.807,262.509z"/>
		</g>
		<g id="g3445_1_">
			<path id="path3447_1_" fill="#010101" d="M511.907,279.834c-5.064,4.795-13.087,4.578-17.884-0.483
				c-4.795-5.063-4.578-13.087,0.49-17.884c5.063-4.796,13.082-4.573,17.877,0.486C517.184,267.023,516.967,275.045,511.907,279.834
				L511.907,279.834z M495.221,262.218c-4.656,4.407-4.854,11.773-0.453,16.429c4.412,4.653,11.779,4.853,16.432,0.446
				c4.653-4.405,4.854-11.774,0.445-16.428C507.241,258.011,499.87,257.811,495.221,262.218L495.221,262.218L495.221,262.218z"/>
		</g>
	</g>
	<line id="line3449_1_" fill="none" x1="495.049" y1="261.846" x2="511.739" y2="279.467"/>
</g>
<text id="text6483" transform="matrix(1 0 0 1 45.9468 96.5437)" fill="#010101" font-family="'Arial-BoldItalicMT'" font-size="9">018</text>
<text id="text6485" transform="matrix(1 0 0 1 12.2168 103.7615)" fill="#010101" font-family="'ArialMT'" font-size="7">Aft Cabin Port 2</text>
<text id="text6487" transform="matrix(1 0 0 1 44.9834 65.2166)" fill="#010101" font-family="'Arial-BoldItalicMT'" font-size="9">017</text>
<text id="text6489" transform="matrix(1 0 0 1 11.2534 72.4343)" fill="#010101" font-family="'ArialMT'" font-size="7">Aft Cabin Port 1</text>
<g id="g3251_1_" transform="translate(-238.291,-151.20617)">
	
		<rect id="rect3253_1_" x="368.745" y="261.615" transform="matrix(-0.7071 -0.7072 0.7072 -0.7071 453.5305 729.2397)" fill="#FBB041" stroke="#010101" stroke-width="1.5103" stroke-linejoin="round" width="18.135" height="18.132"/>
	<polyline id="polyline3255_1_" fill="none" stroke="#010101" stroke-width="1.5103" points="369.152,266.111 374.016,266.111 
		374.016,275.565 381.314,275.565 381.314,266.111 386.461,266.111 	"/>
</g>
<text transform="matrix(1 0 0 1 280.1919 118.6736)" fill="#010101" font-family="'Arial-BoldItalicMT'" font-size="9">048</text>
<text transform="matrix(1 0 0 1 280.1919 125.073)" fill="#010101" font-family="'ArialMT'" font-size="7">Aft Cbn Port Bunk Upper</text>
<g id="g3375_3_" transform="translate(-238.291,-151.20617)">
	<g id="g3377_3_">
		<g id="g3379_3_">
			
				<radialGradient id="path3410_6_" cx="214.124" cy="632.1473" r="10.3554" gradientTransform="matrix(1 0 0 -1 286.9785 876.3162)" gradientUnits="userSpaceOnUse">
				<stop  offset="0.004" style="stop-color:#FFF0E0"/>
				<stop  offset="0.1456" style="stop-color:#FFF0DE"/>
				<stop  offset="0.253" style="stop-color:#FEF0D8"/>
				<stop  offset="0.3492" style="stop-color:#FDF0CC"/>
				<stop  offset="0.4388" style="stop-color:#FCEEBA"/>
				<stop  offset="0.5239" style="stop-color:#FBEDA3"/>
				<stop  offset="0.6055" style="stop-color:#FAEB88"/>
				<stop  offset="0.6829" style="stop-color:#F9EB63"/>
				<stop  offset="0.7455" style="stop-color:#F8ED34"/>
				<stop  offset="0.7934" style="stop-color:#F9E733"/>
				<stop  offset="0.8515" style="stop-color:#F9DF39"/>
				<stop  offset="0.9148" style="stop-color:#FACE3C"/>
				<stop  offset="0.9815" style="stop-color:#FAB73E"/>
				<stop  offset="1" style="stop-color:#FBB041"/>
			</radialGradient>
			<path id="path3410_3_" fill="url(#path3410_6_)" d="M494.186,250.849c4.609,4.867,12.289,5.076,17.154,0.47l-16.689-17.621
				C489.792,238.305,489.581,245.985,494.186,250.849z"/>
			
				<radialGradient id="path3443_6_" cx="217.9126" cy="635.4696" r="10.3566" gradientTransform="matrix(1 0 0 -1 286.9785 876.3162)" gradientUnits="userSpaceOnUse">
				<stop  offset="0.004" style="stop-color:#EC2527"/>
				<stop  offset="0.1637" style="stop-color:#EC2728"/>
				<stop  offset="0.2848" style="stop-color:#EE302B"/>
				<stop  offset="0.3932" style="stop-color:#EF3C33"/>
				<stop  offset="0.4942" style="stop-color:#F04A3E"/>
				<stop  offset="0.5901" style="stop-color:#F15C52"/>
				<stop  offset="0.6808" style="stop-color:#F26D67"/>
				<stop  offset="0.7682" style="stop-color:#F38082"/>
				<stop  offset="0.7697" style="stop-color:#F48283"/>
				<stop  offset="0.8004" style="stop-color:#F17E7F"/>
				<stop  offset="0.8378" style="stop-color:#EB7574"/>
				<stop  offset="0.8785" style="stop-color:#E56964"/>
				<stop  offset="0.9216" style="stop-color:#DB5651"/>
				<stop  offset="0.9662" style="stop-color:#D13D36"/>
				<stop  offset="1" style="stop-color:#C82128"/>
			</radialGradient>
			<path id="path3443_3_" fill="url(#path3443_6_)" d="M511.807,234.161c-4.609-4.86-12.287-5.07-17.156-0.465l16.689,17.621
				C516.206,246.712,516.417,239.03,511.807,234.161z"/>
		</g>
		<g id="g3445_3_">
			<path id="path3447_3_" fill="#010101" d="M511.907,251.486c-5.064,4.795-13.087,4.578-17.884-0.484
				c-4.795-5.063-4.578-13.086,0.49-17.883c5.063-4.796,13.082-4.574,17.877,0.486C517.184,238.676,516.967,246.697,511.907,251.486
				L511.907,251.486z M495.221,233.87c-4.656,4.407-4.854,11.773-0.453,16.428c4.412,4.654,11.779,4.854,16.432,0.447
				c4.653-4.406,4.854-11.775,0.445-16.428C507.241,229.663,499.87,229.463,495.221,233.87L495.221,233.87L495.221,233.87z"/>
		</g>
	</g>
	<line id="line3449_3_" fill="none" x1="495.049" y1="233.498" x2="511.739" y2="251.119"/>
</g>
<text transform="matrix(1 0 0 1 280.1919 90.3269)" fill="#010101" font-family="'Arial-BoldItalicMT'" font-size="9">047</text>
<text transform="matrix(1 0 0 1 280.1919 96.7263)" fill="#010101" font-family="'ArialMT'" font-size="7">Aft Cbn Port Bunk Lower</text>
<g id="g3375_4_" transform="translate(-238.291,-151.20617)">
	<g id="g3377_4_">
		<g id="g3379_4_">
			
				<radialGradient id="path3410_7_" cx="214.124" cy="660.495" r="10.3549" gradientTransform="matrix(1 0 0 -1 286.9785 876.3162)" gradientUnits="userSpaceOnUse">
				<stop  offset="0.004" style="stop-color:#FFF0E0"/>
				<stop  offset="0.1456" style="stop-color:#FFF0DE"/>
				<stop  offset="0.253" style="stop-color:#FEF0D8"/>
				<stop  offset="0.3492" style="stop-color:#FDF0CC"/>
				<stop  offset="0.4388" style="stop-color:#FCEEBA"/>
				<stop  offset="0.5239" style="stop-color:#FBEDA3"/>
				<stop  offset="0.6055" style="stop-color:#FAEB88"/>
				<stop  offset="0.6829" style="stop-color:#F9EB63"/>
				<stop  offset="0.7455" style="stop-color:#F8ED34"/>
				<stop  offset="0.7934" style="stop-color:#F9E733"/>
				<stop  offset="0.8515" style="stop-color:#F9DF39"/>
				<stop  offset="0.9148" style="stop-color:#FACE3C"/>
				<stop  offset="0.9815" style="stop-color:#FAB73E"/>
				<stop  offset="1" style="stop-color:#FBB041"/>
			</radialGradient>
			<path id="path3410_4_" fill="url(#path3410_7_)" d="M494.186,222.5c4.609,4.868,12.289,5.077,17.154,0.47l-16.689-17.619
				C489.792,209.958,489.581,217.64,494.186,222.5z"/>
			
				<radialGradient id="path3443_7_" cx="217.9126" cy="663.8173" r="10.3556" gradientTransform="matrix(1 0 0 -1 286.9785 876.3162)" gradientUnits="userSpaceOnUse">
				<stop  offset="0.004" style="stop-color:#EC2527"/>
				<stop  offset="0.1637" style="stop-color:#EC2728"/>
				<stop  offset="0.2848" style="stop-color:#EE302B"/>
				<stop  offset="0.3932" style="stop-color:#EF3C33"/>
				<stop  offset="0.4942" style="stop-color:#F04A3E"/>
				<stop  offset="0.5901" style="stop-color:#F15C52"/>
				<stop  offset="0.6808" style="stop-color:#F26D67"/>
				<stop  offset="0.7682" style="stop-color:#F38082"/>
				<stop  offset="0.7697" style="stop-color:#F48283"/>
				<stop  offset="0.8004" style="stop-color:#F17E7F"/>
				<stop  offset="0.8378" style="stop-color:#EB7574"/>
				<stop  offset="0.8785" style="stop-color:#E56964"/>
				<stop  offset="0.9216" style="stop-color:#DB5651"/>
				<stop  offset="0.9662" style="stop-color:#D13D36"/>
				<stop  offset="1" style="stop-color:#C82128"/>
			</radialGradient>
			<path id="path3443_4_" fill="url(#path3443_7_)" d="M511.807,205.815c-4.609-4.86-12.287-5.07-17.156-0.465l16.689,17.619
				C516.206,218.365,516.417,210.684,511.807,205.815z"/>
		</g>
		<g id="g3445_4_">
			<path id="path3447_4_" fill="#010101" d="M511.907,223.14c-5.064,4.794-13.087,4.577-17.884-0.484
				c-4.795-5.063-4.578-13.085,0.49-17.881c5.063-4.796,13.082-4.574,17.877,0.485C517.184,210.33,516.967,218.351,511.907,223.14
				L511.907,223.14z M495.221,205.524c-4.656,4.407-4.854,11.771-0.453,16.426c4.412,4.654,11.779,4.853,16.432,0.447
				s4.854-11.774,0.445-16.428C507.241,201.317,499.87,201.117,495.221,205.524L495.221,205.524L495.221,205.524z"/>
		</g>
	</g>
	<line id="line3449_4_" fill="none" x1="495.049" y1="205.152" x2="511.739" y2="222.772"/>
</g>
<text transform="matrix(1 0 0 1 280.1919 61.9802)" fill="#010101" font-family="'Arial-BoldItalicMT'" font-size="9">046</text>
<text transform="matrix(1 0 0 1 280.1919 68.3806)" fill="#010101" font-family="'ArialMT'" font-size="7">Aft Cbn Port Celing 2</text>
<g id="g3375_5_" transform="translate(-238.291,-151.20617)">
	<g id="g3377_5_">
		<g id="g3379_5_">
			
				<radialGradient id="path3410_8_" cx="214.124" cy="688.8397" r="10.3554" gradientTransform="matrix(1 0 0 -1 286.9785 876.3162)" gradientUnits="userSpaceOnUse">
				<stop  offset="0.004" style="stop-color:#FFF0E0"/>
				<stop  offset="0.1456" style="stop-color:#FFF0DE"/>
				<stop  offset="0.253" style="stop-color:#FEF0D8"/>
				<stop  offset="0.3492" style="stop-color:#FDF0CC"/>
				<stop  offset="0.4388" style="stop-color:#FCEEBA"/>
				<stop  offset="0.5239" style="stop-color:#FBEDA3"/>
				<stop  offset="0.6055" style="stop-color:#FAEB88"/>
				<stop  offset="0.6829" style="stop-color:#F9EB63"/>
				<stop  offset="0.7455" style="stop-color:#F8ED34"/>
				<stop  offset="0.7934" style="stop-color:#F9E733"/>
				<stop  offset="0.8515" style="stop-color:#F9DF39"/>
				<stop  offset="0.9148" style="stop-color:#FACE3C"/>
				<stop  offset="0.9815" style="stop-color:#FAB73E"/>
				<stop  offset="1" style="stop-color:#FBB041"/>
			</radialGradient>
			<path id="path3410_5_" fill="url(#path3410_8_)" d="M494.186,194.155c4.609,4.868,12.289,5.077,17.154,0.47l-16.689-17.62
				C489.792,181.613,489.581,189.293,494.186,194.155z"/>
			
				<radialGradient id="path3443_8_" cx="217.9126" cy="692.162" r="10.3561" gradientTransform="matrix(1 0 0 -1 286.9785 876.3162)" gradientUnits="userSpaceOnUse">
				<stop  offset="0.004" style="stop-color:#EC2527"/>
				<stop  offset="0.1637" style="stop-color:#EC2728"/>
				<stop  offset="0.2848" style="stop-color:#EE302B"/>
				<stop  offset="0.3932" style="stop-color:#EF3C33"/>
				<stop  offset="0.4942" style="stop-color:#F04A3E"/>
				<stop  offset="0.5901" style="stop-color:#F15C52"/>
				<stop  offset="0.6808" style="stop-color:#F26D67"/>
				<stop  offset="0.7682" style="stop-color:#F38082"/>
				<stop  offset="0.7697" style="stop-color:#F48283"/>
				<stop  offset="0.8004" style="stop-color:#F17E7F"/>
				<stop  offset="0.8378" style="stop-color:#EB7574"/>
				<stop  offset="0.8785" style="stop-color:#E56964"/>
				<stop  offset="0.9216" style="stop-color:#DB5651"/>
				<stop  offset="0.9662" style="stop-color:#D13D36"/>
				<stop  offset="1" style="stop-color:#C82128"/>
			</radialGradient>
			<path id="path3443_5_" fill="url(#path3443_8_)" d="M511.807,177.47c-4.609-4.859-12.287-5.069-17.156-0.465l16.689,17.62
				C516.206,190.02,516.417,182.338,511.807,177.47z"/>
		</g>
		<g id="g3445_5_">
			<path id="path3447_5_" fill="#010101" d="M511.907,194.793c-5.064,4.794-13.087,4.578-17.884-0.483
				c-4.795-5.063-4.578-13.085,0.49-17.882c5.063-4.796,13.082-4.573,17.877,0.486C517.184,181.984,516.967,190.005,511.907,194.793
				L511.907,194.793z M495.221,177.179c-4.656,4.407-4.854,11.772-0.453,16.427c4.412,4.653,11.779,4.853,16.432,0.446
				c4.652-4.404,4.854-11.773,0.445-16.427C507.241,172.972,499.87,172.771,495.221,177.179L495.221,177.179L495.221,177.179z"/>
		</g>
	</g>
	<line id="line3449_5_" fill="none" x1="495.049" y1="176.807" x2="511.739" y2="194.426"/>
</g>
<text transform="matrix(1 0 0 1 280.1919 33.6335)" fill="#010101" font-family="'Arial-BoldItalicMT'" font-size="9">045</text>
<text transform="matrix(1 0 0 1 280.1919 40.0339)" fill="#010101" font-family="'ArialMT'" font-size="7">Aft Cbn Port Celing 1</text>
<text transform="matrix(1 0 0 1 277.3716 243.4177)" fill="#010101" font-family="'Arial-BoldItalicMT'" font-size="9">*</text>
<text transform="matrix(1 0 0 1 277.3716 249.8181)" fill="#010101" font-family="'ArialMT'" font-size="7">Backlight dim</text>
<text transform="matrix(1 0 0 1 277.3716 207.9851)" fill="#010101" font-family="'Arial-BoldItalicMT'" font-size="9">*</text>
<text transform="matrix(1 0 0 1 277.3716 214.3855)" fill="#010101" font-family="'ArialMT'" font-size="7">Red Select</text>
<g id="g3018_2_" transform="translate(-238.291,-151.20617)">
	
		<radialGradient id="path3051_4_" cx="213.6841" cy="442.6483" r="6.3584" gradientTransform="matrix(1 0 0 -1 286.9785 876.3162)" gradientUnits="userSpaceOnUse">
		<stop  offset="0.004" style="stop-color:#EC2527"/>
		<stop  offset="0.1789" style="stop-color:#EC2728"/>
		<stop  offset="0.3115" style="stop-color:#EE302B"/>
		<stop  offset="0.4302" style="stop-color:#EF3C33"/>
		<stop  offset="0.5408" style="stop-color:#F04A3E"/>
		<stop  offset="0.6457" style="stop-color:#F15C52"/>
		<stop  offset="0.745" style="stop-color:#F26D67"/>
		<stop  offset="0.8407" style="stop-color:#F38082"/>
		<stop  offset="0.8424" style="stop-color:#F48283"/>
		<stop  offset="0.8635" style="stop-color:#F17E7F"/>
		<stop  offset="0.889" style="stop-color:#EB7574"/>
		<stop  offset="0.9169" style="stop-color:#E56964"/>
		<stop  offset="0.9464" style="stop-color:#DB5651"/>
		<stop  offset="0.9769" style="stop-color:#D13D36"/>
		<stop  offset="1" style="stop-color:#C82128"/>
	</radialGradient>
	<path id="path3051_2_" fill="url(#path3051_4_)" stroke="#010101" stroke-width="1.4485" d="M507.021,438.804
		c0,0.68-0.547,1.223-1.224,1.223h-10.271c-0.676,0-1.223-0.543-1.223-1.223v-10.269c0-0.679,0.547-1.226,1.223-1.226h10.271
		c0.677,0,1.224,0.547,1.224,1.226V438.804z"/>
	
		<radialGradient id="path3084_4_" cx="217.4175" cy="450.9247" r="6.3589" gradientTransform="matrix(1 0 0 -1 286.9785 876.3162)" gradientUnits="userSpaceOnUse">
		<stop  offset="0.004" style="stop-color:#EC2527"/>
		<stop  offset="0.1789" style="stop-color:#EC2728"/>
		<stop  offset="0.3115" style="stop-color:#EE302B"/>
		<stop  offset="0.4302" style="stop-color:#EF3C33"/>
		<stop  offset="0.5408" style="stop-color:#F04A3E"/>
		<stop  offset="0.6457" style="stop-color:#F15C52"/>
		<stop  offset="0.745" style="stop-color:#F26D67"/>
		<stop  offset="0.8407" style="stop-color:#F38082"/>
		<stop  offset="0.8424" style="stop-color:#F48283"/>
		<stop  offset="0.8635" style="stop-color:#F17E7F"/>
		<stop  offset="0.889" style="stop-color:#EB7574"/>
		<stop  offset="0.9169" style="stop-color:#E56964"/>
		<stop  offset="0.9464" style="stop-color:#DB5651"/>
		<stop  offset="0.9769" style="stop-color:#D13D36"/>
		<stop  offset="1" style="stop-color:#C82128"/>
	</radialGradient>
	<path id="path3084_2_" fill="url(#path3084_4_)" stroke="#010101" stroke-width="1.4485" d="M510.754,430.525
		c0,0.679-0.547,1.226-1.223,1.226H499.26c-0.676,0-1.223-0.547-1.223-1.226v-10.27c0-0.679,0.547-1.224,1.223-1.224h10.271
		c0.676,0,1.223,0.545,1.223,1.224V430.525z"/>
	
		<radialGradient id="path3119_4_" cx="207.1528" cy="446.4969" r="6.3589" gradientTransform="matrix(1 0 0 -1 286.9785 876.3162)" gradientUnits="userSpaceOnUse">
		<stop  offset="0.004" style="stop-color:#EC2527"/>
		<stop  offset="0.1789" style="stop-color:#EC2728"/>
		<stop  offset="0.3115" style="stop-color:#EE302B"/>
		<stop  offset="0.4302" style="stop-color:#EF3C33"/>
		<stop  offset="0.5408" style="stop-color:#F04A3E"/>
		<stop  offset="0.6457" style="stop-color:#F15C52"/>
		<stop  offset="0.745" style="stop-color:#F26D67"/>
		<stop  offset="0.8407" style="stop-color:#F38082"/>
		<stop  offset="0.8424" style="stop-color:#F48283"/>
		<stop  offset="0.8635" style="stop-color:#F17E7F"/>
		<stop  offset="0.889" style="stop-color:#EB7574"/>
		<stop  offset="0.9169" style="stop-color:#E56964"/>
		<stop  offset="0.9464" style="stop-color:#DB5651"/>
		<stop  offset="0.9769" style="stop-color:#D13D36"/>
		<stop  offset="1" style="stop-color:#C82128"/>
	</radialGradient>
	<path id="path3119_2_" fill="url(#path3119_4_)" stroke="#010101" stroke-width="1.4485" d="M500.491,434.952
		c0,0.679-0.548,1.226-1.228,1.226h-10.269c-0.68,0-1.223-0.547-1.223-1.226v-10.269c0-0.68,0.543-1.223,1.223-1.223h10.269
		c0.68,0,1.228,0.543,1.228,1.223V434.952z"/>
</g>
<text transform="matrix(1 0 0 1 277.3716 277.4333)" fill="#010101" font-family="'Arial-BoldItalicMT'" font-size="9">*</text>
<text transform="matrix(1 0 0 1 277.3716 283.8337)" fill="#010101" font-family="'ArialMT'" font-size="7">Backlight dim</text>
<g id="g3375_10_" transform="translate(-238.291,-151.20617)">
	<g id="g3377_10_">
		<g id="g3379_10_">
			
				<radialGradient id="path3410_9_" cx="211.2974" cy="515.1962" r="10.3547" gradientTransform="matrix(1 0 0 -1 286.9785 876.3162)" gradientUnits="userSpaceOnUse">
				<stop  offset="0.004" style="stop-color:#FFF0E0"/>
				<stop  offset="0.1456" style="stop-color:#FFF0DE"/>
				<stop  offset="0.253" style="stop-color:#FEF0D8"/>
				<stop  offset="0.3492" style="stop-color:#FDF0CC"/>
				<stop  offset="0.4388" style="stop-color:#FCEEBA"/>
				<stop  offset="0.5239" style="stop-color:#FBEDA3"/>
				<stop  offset="0.6055" style="stop-color:#FAEB88"/>
				<stop  offset="0.6829" style="stop-color:#F9EB63"/>
				<stop  offset="0.7455" style="stop-color:#F8ED34"/>
				<stop  offset="0.7934" style="stop-color:#F9E733"/>
				<stop  offset="0.8515" style="stop-color:#F9DF39"/>
				<stop  offset="0.9148" style="stop-color:#FACE3C"/>
				<stop  offset="0.9815" style="stop-color:#FAB73E"/>
				<stop  offset="1" style="stop-color:#FBB041"/>
			</radialGradient>
			<path id="path3410_10_" fill="url(#path3410_9_)" d="M491.359,367.799c4.608,4.867,12.291,5.076,17.154,0.47l-16.688-17.619
				C486.965,355.256,486.754,362.937,491.359,367.799z"/>
			
				<radialGradient id="path3443_9_" cx="215.0874" cy="518.5184" r="10.3564" gradientTransform="matrix(1 0 0 -1 286.9785 876.3162)" gradientUnits="userSpaceOnUse">
				<stop  offset="0.004" style="stop-color:#EC2527"/>
				<stop  offset="0.1637" style="stop-color:#EC2728"/>
				<stop  offset="0.2848" style="stop-color:#EE302B"/>
				<stop  offset="0.3932" style="stop-color:#EF3C33"/>
				<stop  offset="0.4942" style="stop-color:#F04A3E"/>
				<stop  offset="0.5901" style="stop-color:#F15C52"/>
				<stop  offset="0.6808" style="stop-color:#F26D67"/>
				<stop  offset="0.7682" style="stop-color:#F38082"/>
				<stop  offset="0.7697" style="stop-color:#F48283"/>
				<stop  offset="0.8004" style="stop-color:#F17E7F"/>
				<stop  offset="0.8378" style="stop-color:#EB7574"/>
				<stop  offset="0.8785" style="stop-color:#E56964"/>
				<stop  offset="0.9216" style="stop-color:#DB5651"/>
				<stop  offset="0.9662" style="stop-color:#D13D36"/>
				<stop  offset="1" style="stop-color:#C82128"/>
			</radialGradient>
			<path id="path3443_10_" fill="url(#path3443_9_)" d="M508.982,351.113c-4.608-4.86-12.289-5.07-17.157-0.465l16.688,17.619
				C513.381,363.663,513.592,355.982,508.982,351.113z"/>
		</g>
		<g id="g3445_10_">
			<path id="path3447_10_" fill="#010101" d="M509.083,368.438c-5.066,4.794-13.086,4.576-17.883-0.484
				c-4.798-5.063-4.58-13.086,0.487-17.882c5.063-4.796,13.084-4.574,17.877,0.486C514.359,355.627,514.141,363.648,509.083,368.438
				L509.083,368.438z M492.395,350.822c-4.654,4.406-4.854,11.771-0.451,16.426c4.412,4.654,11.777,4.854,16.432,0.447
				c4.65-4.404,4.854-11.773,0.445-16.426C504.415,346.615,497.043,346.415,492.395,350.822L492.395,350.822L492.395,350.822z"/>
		</g>
	</g>
	<line id="line3449_10_" fill="none" x1="492.225" y1="350.45" x2="508.915" y2="368.07"/>
</g>
<g id="g6905" transform="translate(-238.291,-151.20617)">
	<g id="g6907">
		<line id="line6909" fill="none" stroke="#010101" x1="391.491" y1="165.849" x2="412.215" y2="165.386"/>
		<polygon id="polygon6911" fill="#010101" points="410.299,168.299 421.073,165.153 410.169,162.491 		"/>
	</g>
</g>
<g id="cross_2_" transform="translate(-238.291,-151.20617)">
	<g id="g4461_2_">
		<path id="path4463_3_" fill="#E61E25" stroke="#010101" stroke-width="1.2013" d="M430.959,169.412l3.231,3.954
			c0.343,0.418,0.854,0.66,1.396,0.66h6.006h0.004v3.004l7.209-4.805l-7.209-4.807v3.003l0,0h-5.152l-3.156-3.855"/>
		<path id="path4465_3_" fill="#E61E25" stroke="#010101" stroke-width="1.2013" d="M429.409,161.822l-3.234-3.955
			c-0.344-0.415-0.855-0.658-1.396-0.658h-6.008c-0.993,0-1.802,0.808-1.802,1.802c0,0.995,0.809,1.804,1.802,1.804l5.153-0.003
			l3.154,3.856"/>
	</g>
	<path id="path4467_2_" fill="#FFEFA3" stroke="#010101" stroke-width="1.2013" d="M448.805,159.01l-7.209-4.805v3.003l0,0h-6.006
		c-0.541,0-1.053,0.243-1.396,0.659l-10.271,12.555h-5.153c-0.993,0-1.802,0.808-1.802,1.804c0,0.992,0.809,1.799,1.802,1.799h6.008
		c0.537,0,1.052-0.242,1.396-0.662l10.27-12.552h5.152l0,0v3.006L448.805,159.01z"/>
</g>
<g id="g3257_2_" transform="translate(-238.291,-151.20617)">
	
		<rect id="rect3259_2_" x="367.867" y="156.071" transform="matrix(-0.7071 -0.7071 0.7071 -0.7071 527.4017 550.1643)" fill="#FBB041" stroke="#010101" stroke-width="1.6292" stroke-linejoin="round" width="19.558" height="19.56"/>
	<polyline id="polyline3261_2_" fill="none" stroke="#010101" stroke-width="1.6292" points="369.135,160.178 372.214,160.178 
		372.214,170.595 375.747,170.595 375.747,160.178 378.938,160.178 378.938,170.595 382.588,170.595 382.588,160.178 
		386.122,160.178 	"/>
</g>
<g id="g6921" transform="translate(-238.291,-151.20617)">
	<path id="path6923" fill="none" stroke="#010101" d="M331.651,370.306"/>
</g>
<g id="g6925" transform="translate(-238.291,-151.20617)">
	<path id="path6927" fill="none" stroke="#010101" d="M331.651,370.306"/>
</g>
<g id="g6929" transform="translate(-238.291,-151.20617)">
	<path id="path6931" fill="none" stroke="#010101" d="M331.651,370.306"/>
</g>
<g id="g6933" transform="translate(-238.291,-151.20617)">
	<path id="path6935" fill="#010101" d="M332.044,401.662"/>
	<path id="path6937" fill="none" stroke="#038FA2" d="M332.044,401.662"/>
</g>
<g id="g6939" transform="translate(-238.291,-151.20617)">
	<path id="path6941" fill="#010101" d="M332.044,401.662"/>
	<path id="path6943" fill="none" stroke="#038FA2" d="M332.044,401.662"/>
</g>
<g id="g6945" transform="translate(-238.291,-151.20617)">
	<path id="path6947" fill="#010101" d="M332.044,401.662"/>
	<path id="path6949" fill="none" stroke="#038FA2" d="M332.044,401.662"/>
</g>
<g id="g6951" transform="translate(-238.291,-151.20617)">
	<g id="g6953">
		<line id="line6955" fill="none" stroke="#010101" stroke-width="1.0993" x1="313.627" y1="390.054" x2="357.95" y2="393.012"/>
		<polygon id="polygon6957" fill="#010101" points="355.566,396.014 367.67,393.622 355.992,389.642 		"/>
	</g>
</g>
<g id="g6959" transform="translate(-238.291,-151.20617)">
	<g id="g6961">
		<line id="line6963" fill="none" stroke="#010101" stroke-width="1.0993" x1="316.406" y1="392.704" x2="362.32" y2="419.392"/>
		<polygon id="polygon6965" fill="#010101" points="358.851,421.023 370.759,424.253 362.06,415.502 		"/>
	</g>
</g>
<g id="g6967" transform="translate(-238.291,-151.20617)">
	<g id="g6969">
		<line id="line6971" fill="none" stroke="#010101" stroke-width="1.0993" x1="313.627" y1="390.054" x2="357.95" y2="366.142"/>
		<polygon id="polygon6973" fill="#010101" points="357.53,369.952 366.502,361.483 354.499,364.331 		"/>
	</g>
</g>
<path id="path6975" fill="#DBDBDA" stroke="#010101" d="M99.79,289.775c0,1.563-1.27,2.834-2.836,2.834H3.335
	c-1.565,0-2.835-1.271-2.835-2.834v-85.9c0-1.563,1.27-2.834,2.835-2.834h93.619c1.566,0,2.836,1.271,2.836,2.834V289.775z"/>
<g id="key1_4_" transform="translate(-243.34176,201.33707)">
	
		<linearGradient id="rect2168_8_" gradientUnits="userSpaceOnUse" x1="54.435" y1="432.567" x2="54.435" y2="450.4936" gradientTransform="matrix(1 0 0 1 258.167 -395.6924)">
		<stop  offset="0" style="stop-color:#D8D9D8"/>
		<stop  offset="1" style="stop-color:#48494A"/>
	</linearGradient>
	<path id="rect2168_6_" fill="url(#rect2168_8_)" stroke="#010101" stroke-width="1.3911" d="M305.22,36.924h14.764
		c1.154,0,2.089,0.934,2.089,2.088v13.651c0,1.152-0.935,2.088-2.089,2.088H305.22c-1.154,0-2.089-0.936-2.089-2.088V39.011
		C303.129,37.857,304.066,36.924,305.22,36.924z"/>
	
		<linearGradient id="rect3157_8_" gradientUnits="userSpaceOnUse" x1="76.8198" y1="459.1021" x2="89.6247" y2="459.1021" gradientTransform="matrix(0.8317 0 0 0.8368 243.4262 -338.6031)">
		<stop  offset="0" style="stop-color:#C1C1C2"/>
		<stop  offset="0.5" style="stop-color:#E7E7E7"/>
		<stop  offset="1" style="stop-color:#C1C1C2"/>
	</linearGradient>
	<path id="rect3157_6_" fill="url(#rect3157_8_)" stroke="#F7F9F9" stroke-width="0.4637" d="M307.49,39.437h10.086
		c0.793,0,1.438,0.643,1.438,1.434v9.4c0,0.793-0.648,1.438-1.438,1.438H307.49c-0.797,0-1.439-0.647-1.439-1.438v-9.4
		C306.05,40.08,306.695,39.437,307.49,39.437z"/>
	<line id="line3211_4_" fill="none" stroke="#020202" stroke-width="0.9274" x1="322.075" y1="45.574" x2="335.678" y2="45.574"/>
	<g id="g4648_1_" enable-background="new    ">
		<path id="path4650_1_" fill="#010101" d="M310.851,49.023h4.099c0.311,0,0.593,0.165,0.593,0.593c0,0.431-0.285,0.598-0.593,0.598
			h-5.294v-3.888c0-0.894,0.453-1.348,1.348-1.348h3.349v-2.851h-4.101c-0.311,0-0.596-0.167-0.596-0.593
			c0-0.43,0.286-0.597,0.596-0.597h3.958c0.396,0,0.669,0.06,0.965,0.335c0.333,0.31,0.368,0.632,0.368,1.06v2.444
			c0,0.43-0.035,0.752-0.368,1.062c-0.299,0.273-0.572,0.335-0.965,0.335h-3.359V49.023L310.851,49.023L310.851,49.023z"/>
	</g>
</g>
<g id="key1_3_" transform="translate(-243.34176,201.33707)">
	
		<linearGradient id="rect2168_9_" gradientUnits="userSpaceOnUse" x1="54.042" y1="404.7545" x2="54.042" y2="422.6821" gradientTransform="matrix(1 0 0 1 258.167 -395.6924)">
		<stop  offset="0" style="stop-color:#D8D9D8"/>
		<stop  offset="1" style="stop-color:#48494A"/>
	</linearGradient>
	<path id="rect2168_5_" fill="url(#rect2168_9_)" stroke="#010101" stroke-width="1.3911" d="M304.826,9.111h14.766
		c1.153,0,2.088,0.936,2.088,2.088v13.653c0,1.152-0.935,2.088-2.088,2.088h-14.766c-1.153,0-2.088-0.936-2.088-2.088V11.199
		C302.736,10.046,303.672,9.111,304.826,9.111z"/>
	
		<linearGradient id="rect3157_9_" gradientUnits="userSpaceOnUse" x1="76.3481" y1="425.8668" x2="89.1518" y2="425.8668" gradientTransform="matrix(0.8317 0 0 0.8368 243.4262 -338.6031)">
		<stop  offset="0" style="stop-color:#C1C1C2"/>
		<stop  offset="0.5" style="stop-color:#E7E7E7"/>
		<stop  offset="1" style="stop-color:#C1C1C2"/>
	</linearGradient>
	<path id="rect3157_5_" fill="url(#rect3157_9_)" stroke="#F7F9F9" stroke-width="0.4637" d="M307.095,11.625h10.086
		c0.794,0,1.438,0.645,1.438,1.436v9.399c0,0.793-0.648,1.439-1.438,1.439h-10.086c-0.797,0-1.438-0.648-1.438-1.439V13.06
		C305.658,12.268,306.3,11.625,307.095,11.625z"/>
	<line id="line3211_3_" fill="none" stroke="#020202" stroke-width="0.9274" x1="321.681" y1="17.762" x2="335.285" y2="17.762"/>
	<g id="g4648_3_" enable-background="new    ">
		<path id="path4650_3_" fill="#010101" d="M310.387,21.209h4.099c0.311,0,0.593,0.165,0.593,0.594c0,0.43-0.285,0.597-0.593,0.597
			h-5.294v-3.887c0-0.895,0.453-1.349,1.348-1.349h3.349v-2.85h-4.101c-0.311,0-0.596-0.167-0.596-0.593
			c0-0.431,0.286-0.598,0.596-0.598h3.958c0.396,0,0.669,0.061,0.965,0.335c0.333,0.311,0.368,0.633,0.368,1.061v2.444
			c0,0.43-0.035,0.752-0.368,1.061c-0.299,0.274-0.572,0.335-0.965,0.335h-3.359V21.209L310.387,21.209L310.387,21.209z"/>
	</g>
</g>
<text id="text7013" transform="matrix(1 0 0 1 41.751 246.6414)" fill="#010101" font-family="'Arial-BoldItalicMT'" font-size="9">061</text>
<text id="text7015" transform="matrix(1 0 0 1 13.6968 253.8591)" fill="#010101" font-family="'ArialMT'" font-size="7">Steering Stbd</text>
<text id="text7017" transform="matrix(1 0 0 1 40.7876 218.8582)" fill="#010101" font-family="'Arial-BoldItalicMT'" font-size="9">037</text>
<text id="text7019" transform="matrix(1 0 0 1 15.0039 226.0759)" fill="#010101" font-family="'ArialMT'" font-size="7">Steering Port</text>
<g id="g7021" transform="translate(-238.291,-151.20617)">
	<g id="g7023">
		<line id="line7025" fill="none" stroke="#010101" x1="394.036" y1="361.654" x2="414.761" y2="361.191"/>
		<polygon id="polygon7027" fill="#010101" points="412.845,364.104 423.618,360.957 412.715,358.295 		"/>
	</g>
</g>
<g id="cross_3_" transform="translate(-238.291,-151.20617)">
	<g id="g4461_3_">
		<path id="path4463_4_" fill="#E61E25" stroke="#010101" stroke-width="1.2013" d="M433.504,365.217l3.232,3.953
			c0.342,0.418,0.854,0.66,1.395,0.66h6.007h0.004v3.004l7.208-4.805l-7.208-4.805v3.002h-0.001h-5.152l-3.154-3.855"/>
		<path id="path4465_4_" fill="#E61E25" stroke="#010101" stroke-width="1.2013" d="M431.954,357.627l-3.234-3.955
			c-0.344-0.416-0.854-0.657-1.395-0.657h-6.009c-0.993,0-1.802,0.807-1.802,1.801c0,0.996,0.809,1.803,1.802,1.803l5.152-0.002
			l3.155,3.857"/>
	</g>
	<path id="path4467_3_" fill="#FFEFA3" stroke="#010101" stroke-width="1.2013" d="M451.35,354.814l-7.208-4.806v3.004h-0.001
		h-6.005c-0.542,0-1.054,0.242-1.396,0.658l-10.271,12.556h-5.152c-0.993,0-1.802,0.807-1.802,1.803
		c0,0.994,0.809,1.799,1.802,1.799h6.008c0.538,0,1.051-0.242,1.396-0.662l10.27-12.551h5.152h0.001v3.006L451.35,354.814
		L451.35,354.814z"/>
</g>
<g id="g3257_1_" transform="translate(-238.291,-151.20617)">
	
		<rect id="rect3259_1_" x="370.428" y="351.87" transform="matrix(-0.7071 -0.7071 0.7071 -0.7071 393.3298 886.2221)" fill="#FBB041" stroke="#010101" stroke-width="1.6292" stroke-linejoin="round" width="19.559" height="19.56"/>
	<polyline id="polyline3261_1_" fill="none" stroke="#010101" stroke-width="1.6292" points="371.681,355.982 374.76,355.982 
		374.76,366.4 378.292,366.4 378.292,355.982 381.483,355.982 381.483,366.4 385.134,366.4 385.134,355.982 388.667,355.982 	"/>
</g>
<g id="g7037" transform="translate(-238.291,-151.20617)">
	<g id="g7039">
		<line id="line7041" fill="none" stroke="#010101" stroke-width="1.0993" x1="371.944" y1="428.906" x2="412.759" y2="429.514"/>
		<polygon id="polygon7043" fill="#010101" points="410.532,432.635 422.497,429.62 410.628,426.249 		"/>
	</g>
</g>
<g id="g7045" transform="translate(-238.291,-151.20617)">
	<g id="g7047">
		<line id="line7049" fill="none" stroke="#010101" stroke-width="1.0993" x1="373.362" y1="395.601" x2="414.175" y2="396.208"/>
		<polygon id="polygon7051" fill="#010101" points="411.95,399.329 423.913,396.314 412.044,392.943 		"/>
	</g>
</g>
<g id="g2833_2_" transform="translate(-238.291,-151.20617)">
	
		<rect id="rect2835_2_" x="370.448" y="386.539" transform="matrix(-0.7071 -0.7071 0.7071 -0.7071 368.6085 944.8367)" fill="#FBB041" stroke="#010101" stroke-width="1.589" stroke-linejoin="round" width="19.077" height="19.077"/>
	<g id="g2837_2_">
		<polyline id="polyline2839_2_" fill="none" stroke="#010101" stroke-width="1.589" points="372.958,389.459 376.077,389.459 
			376.077,400.096 379.038,400.096 		"/>
		<line id="line2841_2_" fill="none" stroke="#010101" stroke-width="1.589" x1="380.734" y1="400.096" x2="382.604" y2="400.096"/>
		<line id="line2843_2_" fill="none" stroke="#010101" stroke-width="1.589" x1="384.208" y1="400.096" x2="386.17" y2="400.096"/>
	</g>
</g>
<g id="g3263_2_" transform="translate(-238.291,-151.20617)">
	
		<rect id="rect3265_2_" x="370.36" y="419.62" transform="matrix(-0.707 -0.7072 0.7072 -0.707 345.1017 1001.453)" fill="#FBB041" stroke="#010101" stroke-width="1.6035" stroke-linejoin="round" width="19.25" height="19.25"/>
	<g id="g3267_2_">
		<polyline id="polyline3269_2_" fill="none" stroke="#010101" stroke-width="1.6035" points="386.649,422.525 383.665,422.525 
			383.665,433.424 380.837,433.424 		"/>
		
			<line id="line3271_2_" fill="none" stroke="#010101" stroke-width="1.6035" x1="379.214" y1="433.424" x2="377.426" y2="433.424"/>
		
			<line id="line3273_2_" fill="none" stroke="#010101" stroke-width="1.6035" x1="375.894" y1="433.424" x2="374.017" y2="433.424"/>
	</g>
</g>
<g id="g3319_2_" transform="translate(-238.291,-151.20617)">
	<g id="g3321_2_">
		
			<line id="line3323_2_" fill="none" stroke="#010101" stroke-width="2.9369" stroke-linecap="round" x1="424.403" y1="435.326" x2="424.403" y2="431.422"/>
		
			<line id="line3325_2_" fill="none" stroke="#010101" stroke-width="2.9369" stroke-linecap="round" x1="429.084" y1="435.326" x2="429.084" y2="428.254"/>
		
			<line id="line3327_2_" fill="none" stroke="#010101" stroke-width="2.9369" stroke-linecap="round" x1="433.761" y1="435.326" x2="433.761" y2="425.091"/>
		
			<line id="line3329_2_" fill="none" stroke="#010101" stroke-width="2.9369" stroke-linecap="round" x1="438.439" y1="435.326" x2="438.439" y2="421.923"/>
		
			<line id="line3331_2_" fill="none" stroke="#010101" stroke-width="2.9369" stroke-linecap="round" x1="443.12" y1="435.326" x2="443.12" y2="418.76"/>
		
			<line id="line3333_2_" fill="none" stroke="#010101" stroke-width="2.9369" stroke-linecap="round" x1="447.797" y1="435.326" x2="447.797" y2="415.598"/>
	</g>
	<g id="g3_5_">
		<path id="path5_5_" fill="#5B9B43" d="M431.696,433.807c0,3.334,2.615,6.212,5.938,6.518c3.324,0.309,6.438-2.032,7.048-5.319
			c0.604-3.29-1.442-6.601-4.666-7.503c-3.224-0.901-6.709,0.853-7.896,3.981C431.834,432.224,431.696,433.013,431.696,433.807"/>
		
			<radialGradient id="path12_7_" cx="126.3159" cy="309.3173" r="6.083" gradientTransform="matrix(1 0 0 1 311.9229 124.4873)" gradientUnits="userSpaceOnUse">
			<stop  offset="0" style="stop-color:#D3E494"/>
			<stop  offset="1" style="stop-color:#86C442"/>
		</radialGradient>
		<path id="path12_5_" fill="url(#path12_7_)" d="M432.157,433.807c0,3.314,2.768,6.081,6.084,6.081c3.313,0,6.08-2.769,6.08-6.081
			c0-3.317-2.77-6.086-6.08-6.086C434.924,427.72,432.157,430.489,432.157,433.807"/>
		<path id="path14_5_" fill="#69BA45" d="M432.741,431.441c-0.49,2.866,1.221,5.743,3.975,6.681
			c2.918,0.994,6.199-0.477,7.423-3.307c-0.589,3.423-4.104,5.672-7.455,4.77C433.22,438.649,431.317,434.737,432.741,431.441"/>
		<path id="path16_5_" fill="#B4D336" d="M434.439,431.104c0.845,0.176,1.81-1.021,2.539-1.319c1.362-0.567,3.065-0.304,4.3,0.465
			c1.307,0.816,2.236,2.384,2.379,3.924c0,0.004,0,0.005,0,0.002c-0.096-0.936-0.029-1.812-0.386-2.712
			c-0.587-1.493-1.856-2.659-3.388-3.132c-1.59-0.484-3.32-0.176-4.689,0.75C434.774,429.372,433.151,430.839,434.439,431.104"/>
		<path id="path18_5_" fill="#729C3F" d="M441.187,431.52c-1.16,1.004-2.317,2.01-3.479,3.016c-0.57-0.658-1.142-1.315-1.711-1.972
			c-0.224-0.261-0.437-0.569-0.785-0.663c-0.574-0.153-1.315,0.368-1.438,0.941c-0.162,0.776,0.931,1.648,1.373,2.162
			c0.506,0.585,0.996,1.191,1.5,1.776c0.694,0.798,1.308,0.511,1.97-0.063c0.746-0.646,1.493-1.291,2.237-1.936
			c0.585-0.507,1.17-1.014,1.754-1.521C443.614,432.388,442.187,430.647,441.187,431.52 M437.754,434.721
			c0.608-0.525,1.22-1.056,1.826-1.582c0.572-0.494,1.199-1.266,1.887-1.602c0.599-0.285,1.388,0.396,1.346,1.021
			c-0.027,0.372-0.323,0.578-0.577,0.803c-0.788,0.681-1.577,1.359-2.36,2.044c-0.604,0.519-1.197,1.033-1.797,1.555
			c-0.763,0.658-1.343-0.376-1.775-0.879c-0.68-0.784-1.357-1.566-2.036-2.351c-0.283-0.327-0.491-0.73-0.195-1.143
			c0.339-0.466,1.032-0.791,1.483-0.272C435.827,432.631,437.556,434.851,437.754,434.721"/>
		<path id="path20_5_" fill="#FFFFFF" d="M442.687,431.933c-0.926-1.177-1.844,0-2.629,0.679c-0.788,0.685-1.572,1.363-2.358,2.044
			c-0.488-0.557-0.975-1.118-1.462-1.679c-0.604-0.702-1.143-1.424-2.065-0.621c-0.797,0.692,0.021,1.428,0.498,1.973
			c0.593,0.688,1.188,1.371,1.781,2.06c0.459,0.529,0.971,1.255,1.721,0.604c0.552-0.477,1.101-0.952,1.65-1.427
			c0.705-0.614,1.415-1.225,2.118-1.838C442.439,433.288,443.333,432.676,442.687,431.933"/>
	</g>
</g>
<g id="g3347_2_" transform="translate(-238.291,-151.20617)">
	<g id="g3349_2_">
		
			<line id="line3351_2_" fill="none" stroke="#010101" stroke-width="2.8605" stroke-linecap="round" x1="424.417" y1="403.032" x2="424.417" y2="399.367"/>
		
			<line id="line3353_2_" fill="none" stroke="#010101" stroke-width="2.8605" stroke-linecap="round" x1="428.978" y1="403.032" x2="428.978" y2="396.396"/>
		
			<line id="line3355_2_" fill="none" stroke="#010101" stroke-width="2.8605" stroke-linecap="round" x1="433.532" y1="403.032" x2="433.532" y2="393.426"/>
		
			<line id="line3357_2_" fill="none" stroke="#010101" stroke-width="2.8605" stroke-linecap="round" x1="438.088" y1="403.032" x2="438.088" y2="390.456"/>
		
			<line id="line3359_2_" fill="none" stroke="#010101" stroke-width="2.8605" stroke-linecap="round" x1="442.647" y1="403.032" x2="442.647" y2="387.487"/>
		
			<line id="line3361_2_" fill="none" stroke="#010101" stroke-width="2.8605" stroke-linecap="round" x1="447.202" y1="403.032" x2="447.202" y2="384.52"/>
	</g>
	<g id="g3_4_">
		<path id="path5_4_" fill="#971D20" d="M431.461,401.336c0,3.214,2.523,5.99,5.728,6.283c3.205,0.296,6.205-1.959,6.796-5.129
			c0.587-3.168-1.393-6.361-4.499-7.233s-6.465,0.825-7.608,3.844C431.604,399.811,431.461,400.57,431.461,401.336"/>
		
			<radialGradient id="path12_8_" cx="125.854" cy="276.847" r="5.865" gradientTransform="matrix(1 0 0 1 311.9229 124.4873)" gradientUnits="userSpaceOnUse">
			<stop  offset="0" style="stop-color:#F2888A"/>
			<stop  offset="1" style="stop-color:#D82F28"/>
		</radialGradient>
		<path id="path12_4_" fill="url(#path12_8_)" d="M431.913,401.336c0,3.195,2.664,5.864,5.862,5.864
			c3.199,0,5.866-2.669,5.866-5.864c0-3.194-2.667-5.867-5.866-5.867C434.575,395.471,431.913,398.141,431.913,401.336"/>
		<path id="path14_4_" fill="#B32025" d="M432.478,399.057c-0.476,2.764,1.176,5.537,3.826,6.44
			c2.813,0.957,5.979-0.457,7.157-3.183c-0.565,3.298-3.959,5.466-7.188,4.595C432.938,406.008,431.099,402.236,432.478,399.057"/>
		<path id="path16_4_" fill="#EF5A58" d="M434.11,398.732c0.811,0.168,1.744-0.98,2.447-1.272c1.316-0.548,2.955-0.292,4.146,0.45
			c1.26,0.789,2.154,2.301,2.293,3.779c0,0.002,0,0.004,0,0.002c-0.094-0.897-0.029-1.739-0.373-2.607
			c-0.565-1.442-1.789-2.57-3.271-3.019c-1.526-0.471-3.196-0.173-4.517,0.721C434.433,397.06,432.872,398.475,434.11,398.732"/>
		<path id="path18_4_" fill="#FFFFFF" d="M441.262,402.973c-0.52-0.522-1.045-1.049-1.564-1.567
			c-0.14-0.142,1.146-1.275,1.327-1.463c0.714-0.714,0.039-1.149-0.522-1.711c-0.269-0.265-0.635-0.688-1.017-0.306
			c-0.282,0.178-0.532,0.533-0.771,0.769c-0.276,0.276-0.557,0.557-0.832,0.834c-0.068,0.065-0.45-0.39-0.516-0.453
			c-0.379-0.377-1.295-1.715-1.904-1.105c-0.362,0.363-1.572,1.191-0.995,1.771c0.53,0.534,1.067,1.065,1.604,1.602
			c-0.427,0.427-2.255,1.728-1.591,2.386c0.341,0.344,0.722,0.903,1.156,1.123c0.498,0.25,1.06-0.569,1.353-0.861
			c0.131-0.133,0.783-0.947,0.928-0.799c0.442,0.441,0.887,0.886,1.332,1.331c0.418,0.419,0.738,0.443,1.17,0.013
			C440.732,404.217,441.779,403.488,441.262,402.973"/>
		<path id="path20_4_" fill="#971D20" d="M435.858,397.717c-0.411,0-0.813,0.585-1.072,0.841c-0.33,0.329-0.836,0.746-0.361,1.225
			c0.328,0.329,0.66,0.656,0.988,0.984c0.239,0.237,0.689,0.454,0.416,0.729c-0.438,0.434-2.076,1.586-1.393,2.271
			c0.313,0.312,0.625,0.622,0.938,0.938c0.436,0.432,0.797,0.18,1.146-0.168c0.367-0.365,0.737-0.739,1.108-1.109
			c0.334-0.332,0.385-0.063,0.703,0.259c0.351,0.347,0.693,0.688,1.045,1.041c0.447,0.448,0.826,0.107,1.168-0.236
			c0.27-0.269,0.74-0.588,0.886-0.945c0.204-0.49-0.438-0.936-0.735-1.232c-0.318-0.318-0.637-0.638-0.957-0.956
			c-0.037-0.037,0.778-0.814,0.858-0.894c0.336-0.336,1.248-0.979,0.715-1.511c-0.255-0.38-0.703-0.704-1.026-1.028
			c-0.709-0.705-1.978,1.097-2.43,1.552c-0.324-0.327-0.648-0.653-0.977-0.978C436.622,398.248,436.254,397.721,435.858,397.717
			 M435.545,404.709c-0.43-0.431-1.588-1.174-0.963-1.802c0.205-0.204,1.64-1.499,1.508-1.63c-0.322-0.322-0.646-0.645-0.967-0.966
			c-0.223-0.223-0.776-0.604-0.776-0.959c0-0.367,0.579-0.763,0.805-0.987c0.279-0.279,0.646-0.773,1.054-0.367
			c0.157,0.158,1.635,1.656,1.648,1.641c0.523-0.521,1.057-1.268,1.669-1.668c0.408-0.407,0.856,0.226,1.113,0.486
			c0.268,0.264,1.008,0.783,0.585,1.208c-0.4,0.616-1.149,1.146-1.67,1.669c-0.002,0.002-0.004,0.004-0.006,0.006
			c0.521,0.525,1.272,1.057,1.676,1.674c0.425,0.426-0.317,0.945-0.586,1.209c-0.284,0.288-0.709,0.896-1.143,0.46
			c-0.221-0.22-1.578-1.716-1.709-1.585C437.446,403.437,436.084,405.252,435.545,404.709"/>
	</g>
</g>
<g id="key1_5_" transform="translate(-243.34176,201.33707)">
	
		<linearGradient id="rect2168_10_" gradientUnits="userSpaceOnUse" x1="54.5469" y1="460.0943" x2="54.5469" y2="478.0219" gradientTransform="matrix(1 0 0 1 258.167 -395.6924)">
		<stop  offset="0" style="stop-color:#D8D9D8"/>
		<stop  offset="1" style="stop-color:#48494A"/>
	</linearGradient>
	<path id="rect2168_7_" fill="url(#rect2168_10_)" stroke="#010101" stroke-width="1.3911" d="M305.331,64.451h14.765
		c1.154,0,2.088,0.936,2.088,2.088v13.652c0,1.153-0.935,2.089-2.088,2.089h-14.765c-1.154,0-2.088-0.936-2.088-2.089V66.539
		C303.24,65.385,304.177,64.451,305.331,64.451L305.331,64.451z"/>
	
		<linearGradient id="rect3157_10_" gradientUnits="userSpaceOnUse" x1="76.9531" y1="492.0006" x2="89.758" y2="492.0006" gradientTransform="matrix(0.8317 0 0 0.8368 243.4262 -338.6031)">
		<stop  offset="0" style="stop-color:#C1C1C2"/>
		<stop  offset="0.5" style="stop-color:#E7E7E7"/>
		<stop  offset="1" style="stop-color:#C1C1C2"/>
	</linearGradient>
	<path id="rect3157_7_" fill="url(#rect3157_10_)" stroke="#F7F9F9" stroke-width="0.4637" d="M307.6,66.965h10.086
		c0.793,0,1.438,0.644,1.438,1.435v9.399c0,0.793-0.648,1.439-1.438,1.439H307.6c-0.797,0-1.438-0.647-1.438-1.439V68.4
		C306.162,67.608,306.805,66.965,307.6,66.965z"/>
	<line id="line3211_5_" fill="none" stroke="#020202" stroke-width="0.9274" x1="322.186" y1="73.102" x2="335.789" y2="73.102"/>
	<g id="g4668_1_" enable-background="new    ">
		<path id="path4670_1_" fill="#010101" d="M310.503,69.86c-0.294,0-0.561-0.157-0.561-0.56c0-0.403,0.269-0.562,0.561-0.562h3.857
			c0.637,0,1.123,0.482,1.123,1.123v2.15c0,0.451-0.091,0.773-0.438,1.087c0.347,0.314,0.438,0.642,0.438,1.09v2.153
			c0,0.637-0.483,1.12-1.123,1.12h-3.857c-0.294,0-0.561-0.157-0.561-0.56c0-0.403,0.269-0.561,0.561-0.561h3.857v-1.861
			c0-0.629-0.246-0.817-0.56-0.817h-2.198c-0.292,0-0.56-0.157-0.56-0.563c0-0.403,0.271-0.56,0.56-0.56h2.198
			c0.314,0,0.56-0.191,0.56-0.817v-1.861h-3.857V69.86z"/>
	</g>
</g>
<text transform="matrix(1 0 0 1 41.4121 274.5945)" fill="#010101" font-family="'Arial-BoldItalicMT'" font-size="9">048</text>
<text transform="matrix(1 0 0 1 24.5249 280.9949)" fill="#010101" font-family="'ArialMT'" font-size="7">Nav Table</text>
<text transform="matrix(1 0 0 1 246.645 10.7468)" font-family="'Arial-BoldItalicMT'" font-size="7">Group 12 Aft Cabin Port</text>
<text transform="matrix(1 0 0 1 2.126 44.3816)" font-family="'Arial-BoldItalicMT'" font-size="7">Group 11 Aft Cabin Port Light</text>
</svg>
