<?xml version="1.0" encoding="utf-8"?>
<!-- Generator: Adobe Illustrator 14.0.0, SVG Export Plug-In . SVG Version: 6.00 Build 43363)  -->
<!DOCTYPE svg PUBLIC "-//W3C//DTD SVG 1.1//EN" "http://www.w3.org/Graphics/SVG/1.1/DTD/svg11.dtd" [
	<!ENTITY ns_flows "http://ns.adobe.com/Flows/1.0/">
	<!ENTITY ns_extend "http://ns.adobe.com/Extensibility/1.0/">
	<!ENTITY ns_ai "http://ns.adobe.com/AdobeIllustrator/10.0/">
	<!ENTITY ns_graphs "http://ns.adobe.com/Graphs/1.0/">
]>
<svg version="1.1"
	 id="svg9573" xmlns:x="&ns_extend;" xmlns:i="&ns_ai;" xmlns:graph="&ns_graphs;" sodipodi:docname="signal.svg" inkscape:version="0.47 r22583" xmlns:dc="http://purl.org/dc/elements/1.1/" xmlns:cc="http://creativecommons.org/ns#" xmlns:rdf="http://www.w3.org/1999/02/22-rdf-syntax-ns#" xmlns:svg="http://www.w3.org/2000/svg" xmlns:sodipodi="http://sodipodi.sourceforge.net/DTD/sodipodi-0.dtd" xmlns:inkscape="http://www.inkscape.org/namespaces/inkscape"
	 xmlns="http://www.w3.org/2000/svg" xmlns:xlink="http://www.w3.org/1999/xlink" xmlns:a="http://ns.adobe.com/AdobeSVGViewerExtensions/3.0/"
	 x="0px" y="0px" width="100px" height="100px" viewBox="0 0 100 100" enable-background="new 0 0 100 100" xml:space="preserve">
<defs>
	
	
		<inkscape:perspective  id="perspective9581" inkscape:vp_z="744.09448 : 526.18109 : 1" inkscape:vp_y="0 : 1000 : 0" inkscape:vp_x="0 : 526.18109 : 1" sodipodi:type="inkscape:persp3d" inkscape:persp3d-origin="372.04724 : 350.78739 : 1">
		</inkscape:perspective>
	
		<inkscape:perspective  id="perspective9567" inkscape:vp_z="1 : 0.5 : 1" inkscape:vp_y="0 : 1000 : 0" inkscape:vp_x="0 : 0.5 : 1" sodipodi:type="inkscape:persp3d" inkscape:persp3d-origin="0.5 : 0.33333333 : 1">
		</inkscape:perspective>
</defs>
<sodipodi:namedview  id="base" inkscape:window-maximized="0" showgrid="false" borderopacity="1.0" bordercolor="#666666" pagecolor="#ffffff" inkscape:cy="66.638683" inkscape:cx="71.57236" inkscape:zoom="3.959798" inkscape:window-y="110" inkscape:window-x="110" inkscape:window-height="882" inkscape:window-width="830" inkscape:showpageshadow="true" inkscape:current-layer="layer1" inkscape:document-units="px" inkscape:pageshadow="2" inkscape:pageopacity="0.0">
	</sodipodi:namedview>
<g id="cog" inkscape:label="#g4557">
	<path id="path4559" d="M92.97,43.413h-4.248c-1.947,0-4.009-1.516-4.575-3.378l-2.451-5.925c-0.905-1.71-0.543-4.235,0.831-5.62
		l3.013-3.007c1.377-1.38,1.377-3.631,0-5.01l-5.012-5.009c-1.372-1.368-3.627-1.368-5.004,0l-3.013,3.013
		c-1.373,1.376-3.915,1.751-5.621,0.827l-5.93-2.433c-1.845-0.566-3.384-2.637-3.384-4.586V8.043c0-1.942-1.595-3.541-3.536-3.541
		h-7.074c-1.947,0-3.541,1.598-3.541,3.541v4.241c0,1.954-1.52,4.02-3.387,4.586l-5.925,2.433c-1.707,0.924-4.233,0.56-5.618-0.827
		l-3.017-3.013c-1.365-1.368-3.615-1.368-5.003,0l-5.001,5.009c-1.381,1.369-1.381,3.622,0,5.007l2.999,3.011
		c1.374,1.377,1.752,3.909,0.838,5.62l-2.448,5.929c-0.569,1.858-2.635,3.381-4.577,3.381l-4.249-0.007
		c-1.946,0-3.541,1.594-3.541,3.548v7.074c0,1.946,1.594,3.541,3.541,3.541h4.249c1.946,0,4.005,1.522,4.57,3.382l2.455,5.922
		c0.906,1.714,0.542,4.252-0.838,5.634l-3.005,2.997c-1.374,1.378-1.374,3.631,0,5.02l5.008,5.004c1.376,1.377,3.626,1.377,5.003,0
		l3.013-3.008c1.37-1.364,3.911-1.745,5.61-0.825l5.94,2.445c1.852,0.571,3.383,2.634,3.383,4.584v4.233
		c0,1.942,1.59,3.537,3.541,3.537h7.074c1.941,0,3.536-1.595,3.536-3.537V88.73c0-1.95,1.527-4.013,3.388-4.584l5.937-2.445
		c1.702-0.92,4.233-0.55,5.621,0.825l3.002,3.008c1.366,1.377,3.619,1.377,5.004,0l5.012-5.004c1.377-1.381,1.377-3.627,0-5.02
		l-3.002-2.997c-1.373-1.367-1.747-3.911-0.842-5.634l2.451-5.922c0.566-1.849,2.636-3.382,4.575-3.382h4.248
		c1.941,0,3.532-1.588,3.532-3.538v-7.081C96.503,45.007,94.908,43.413,92.97,43.413L92.97,43.413z M68.211,50.49
		c0,9.772-7.92,17.677-17.688,17.677c-9.772,0-17.692-7.904-17.692-17.677c0-9.769,7.919-17.688,17.692-17.688
		C60.288,32.798,68.211,40.721,68.211,50.49z"/>
</g>
</svg>
