<?xml version="1.0" encoding="UTF-8" standalone="no"?>
<!-- Created with Inkscape (http://www.inkscape.org/) -->

<svg
   xmlns:dc="http://purl.org/dc/elements/1.1/"
   xmlns:cc="http://creativecommons.org/ns#"
   xmlns:rdf="http://www.w3.org/1999/02/22-rdf-syntax-ns#"
   xmlns:svg="http://www.w3.org/2000/svg"
   xmlns="http://www.w3.org/2000/svg"
   xmlns:sodipodi="http://sodipodi.sourceforge.net/DTD/sodipodi-0.dtd"
   xmlns:inkscape="http://www.inkscape.org/namespaces/inkscape"
   width="100"
   height="100"
   id="svg4785"
   version="1.1"
   inkscape:version="0.47 r22583"
   sodipodi:docname="arrow8.svg">
  <defs
     id="defs4787">
    <inkscape:perspective
       sodipodi:type="inkscape:persp3d"
       inkscape:vp_x="0 : 526.18109 : 1"
       inkscape:vp_y="0 : 1000 : 0"
       inkscape:vp_z="744.09448 : 526.18109 : 1"
       inkscape:persp3d-origin="372.04724 : 350.78739 : 1"
       id="perspective4793" />
    <inkscape:perspective
       id="perspective4780"
       inkscape:persp3d-origin="0.5 : 0.33333333 : 1"
       inkscape:vp_z="1 : 0.5 : 1"
       inkscape:vp_y="0 : 1000 : 0"
       inkscape:vp_x="0 : 0.5 : 1"
       sodipodi:type="inkscape:persp3d" />
  </defs>
  <sodipodi:namedview
     id="base"
     pagecolor="#ffffff"
     bordercolor="#666666"
     borderopacity="1.0"
     inkscape:pageopacity="0.0"
     inkscape:pageshadow="2"
     inkscape:zoom="1.979899"
     inkscape:cx="78.634618"
     inkscape:cy="68.014238"
     inkscape:document-units="px"
     inkscape:current-layer="layer1"
     showgrid="false"
     inkscape:showpageshadow="false"
     inkscape:window-width="712"
     inkscape:window-height="757"
     inkscape:window-x="44"
     inkscape:window-y="44"
     inkscape:window-maximized="0" />
  <metadata
     id="metadata4790">
    <rdf:RDF>
      <cc:Work
         rdf:about="">
        <dc:format>image/svg+xml</dc:format>
        <dc:type
           rdf:resource="http://purl.org/dc/dcmitype/StillImage" />
        <dc:title />
      </cc:Work>
    </rdf:RDF>
  </metadata>
  <g
     inkscape:label="Layer 1"
     inkscape:groupmode="layer"
     id="layer1"
     transform="translate(0,-952.36218)">
    <path
       id="figure8"
       inkscape:label="#path4455"
       d="m 71.775671,991.40204 c -14.087404,0 -25.61176,11.05666 -26.425574,24.94466 h -0.07795 v 1.559 3.118 c 0,9.4571 -7.692258,17.1491 -17.14934,17.1491 -9.457081,0 -17.14934,-7.692 -17.14934,-17.1491 0,-9.4539 7.692259,-17.1463 17.146222,-17.1463 v 7.7922 L 46.831176,999.1972 28.119687,986.72496 v 7.79827 c -14.614355,0 -26.5004075,11.88917 -26.5004075,26.50047 0,14.611 11.8891695,26.5033 26.5035255,26.5033 14.093639,0 25.61176,-11.0567 26.431811,-24.9442 h 0.07172 v -1.5591 -3.118 c 0,-9.4572 7.692258,-17.1495 17.14934,-17.1495 9.457081,0 17.14934,7.6923 17.14934,17.1495 0,9.454 -7.692259,17.1459 -17.14934,17.1459 v -7.7948 l -18.708371,12.4719 18.708371,12.4722 v -7.7951 c 14.617473,0 26.503525,-11.8889 26.503525,-26.5001 0,-14.6145 -11.889169,-26.50366 -26.503525,-26.50366 z" />
  </g>
</svg>
