<?xml version="1.0" encoding="UTF-8" standalone="no"?>
<!-- Created with Inkscape (http://www.inkscape.org/) -->

<svg
   xmlns:dc="http://purl.org/dc/elements/1.1/"
   xmlns:cc="http://creativecommons.org/ns#"
   xmlns:rdf="http://www.w3.org/1999/02/22-rdf-syntax-ns#"
   xmlns:svg="http://www.w3.org/2000/svg"
   xmlns="http://www.w3.org/2000/svg"
   xmlns:sodipodi="http://sodipodi.sourceforge.net/DTD/sodipodi-0.dtd"
   xmlns:inkscape="http://www.inkscape.org/namespaces/inkscape"
   width="100"
   height="100"
   id="svg8566"
   version="1.1"
   inkscape:version="0.47 r22583"
   sodipodi:docname="cogs.svg">
  <defs
     id="defs8568">
    <inkscape:perspective
       sodipodi:type="inkscape:persp3d"
       inkscape:vp_x="0 : 526.18109 : 1"
       inkscape:vp_y="0 : 1000 : 0"
       inkscape:vp_z="744.09448 : 526.18109 : 1"
       inkscape:persp3d-origin="372.04724 : 350.78739 : 1"
       id="perspective8574" />
    <inkscape:perspective
       id="perspective8557"
       inkscape:persp3d-origin="0.5 : 0.33333333 : 1"
       inkscape:vp_z="1 : 0.5 : 1"
       inkscape:vp_y="0 : 1000 : 0"
       inkscape:vp_x="0 : 0.5 : 1"
       sodipodi:type="inkscape:persp3d" />
  </defs>
  <sodipodi:namedview
     id="base"
     pagecolor="#ffffff"
     bordercolor="#666666"
     borderopacity="1.0"
     inkscape:pageopacity="0.0"
     inkscape:pageshadow="2"
     inkscape:zoom="7.9195959"
     inkscape:cx="60.663705"
     inkscape:cy="57.97125"
     inkscape:document-units="px"
     inkscape:current-layer="layer1"
     showgrid="false"
     inkscape:window-width="1167"
     inkscape:window-height="1322"
     inkscape:window-x="22"
     inkscape:window-y="22"
     inkscape:window-maximized="0" />
  <metadata
     id="metadata8571">
    <rdf:RDF>
      <cc:Work
         rdf:about="">
        <dc:format>image/svg+xml</dc:format>
        <dc:type
           rdf:resource="http://purl.org/dc/dcmitype/StillImage" />
        <dc:title />
      </cc:Work>
    </rdf:RDF>
  </metadata>
  <g
     inkscape:label="Layer 1"
     inkscape:groupmode="layer"
     id="layer1"
     transform="translate(0,-952.36218)">
    <g
       transform="matrix(3.0885371,0,0,3.0885371,-1420.8626,724.73851)"
       id="cogs"
       inkscape:label="#g4561">
      <g
         id="g4563">
        <path
           id="path4565"
           d="m 482,89.667 c 0.55,0 1,-0.45 1,-1 v -1.333 c 0,-0.55 -0.45,-1 -1,-1 h -0.69 c -0.55,0 -1.115,-0.364 -1.26,-0.811 -0.143,-0.443 -0.386,-1.832 0.003,-2.221 l 0.49,-0.489 c 0.389,-0.389 0.389,-1.023 0,-1.415 l -0.941,-0.94 c -0.389,-0.391 -1.023,-0.391 -1.414,0 l -0.488,0.489 c -0.391,0.391 -1.041,0.533 -1.45,0.32 -0.409,-0.212 -1.578,-1.025 -1.578,-1.577 V 79 c 0,-0.55 -0.45,-1 -1,-1 h -1.334 c -0.55,0 -1,0.45 -1,1 v 0.69 c 0,0.552 -0.364,1.117 -0.809,1.262 -0.444,0.143 -1.83,0.386 -2.221,-0.005 l -0.49,-0.489 c -0.391,-0.391 -1.025,-0.391 -1.414,0 l -0.941,0.94 c -0.389,0.391 -0.389,1.026 0,1.415 l 0.49,0.49 c 0.389,0.389 0.533,1.041 0.318,1.45 -0.214,0.408 -1.026,1.579 -1.576,1.579 h -0.692 c -0.55,0 -1,0.45 -1,1 v 1.333 c 0,0.55 0.45,1 1,1 h 0.692 c 0.55,0 1.115,0.362 1.26,0.809 0.143,0.445 0.385,1.831 -0.004,2.22 l -0.491,0.49 c -0.389,0.391 -0.389,1.025 0,1.414 l 0.943,0.943 c 0.389,0.389 1.023,0.389 1.412,0 l 0.49,-0.49 c 0.391,-0.389 1.041,-0.533 1.45,-0.32 0.408,0.212 1.578,1.027 1.578,1.577 L 471.332,97 c 0,0.55 0.45,1 1,1 h 1.334 c 0.55,0 1,-0.45 1,-1 v -0.69 c 0,-0.55 0.364,-1.117 0.81,-1.26 0.444,-0.145 1.832,-0.386 2.223,0.003 l 0.489,0.49 c 0.39,0.389 1.024,0.389 1.413,0 l 0.942,-0.941 c 0.389,-0.389 0.389,-1.023 0,-1.414 l -0.49,-0.491 c -0.389,-0.389 -0.533,-1.041 -0.317,-1.448 0.213,-0.409 1.024,-1.579 1.574,-1.579 l 0.69,-0.003 0,0 z m -9,2.666 c -2.393,0 -4.334,-1.941 -4.334,-4.333 0,-2.396 1.941,-4.334 4.334,-4.334 2.394,0 4.335,1.938 4.335,4.334 -10e-4,2.393 -1.944,4.333 -4.335,4.333 z" />
      </g>
      <g
         id="g4567">
        <path
           id="path4569"
           d="m 488.5,101.833 c 0.275,0 0.5,-0.227 0.5,-0.5 v -0.667 c 0,-0.275 -0.225,-0.5 -0.5,-0.5 h -0.343 c -0.275,0 -0.562,-0.184 -0.631,-0.404 -0.072,-0.222 -0.193,-0.916 10e-4,-1.11 l 0.244,-0.245 c 0.192,-0.192 0.192,-0.513 0,-0.706 l -0.472,-0.473 c -0.192,-0.193 -0.513,-0.193 -0.707,0 l -0.245,0.245 c -0.192,0.194 -0.521,0.267 -0.726,0.16 -0.204,-0.106 -0.789,-0.513 -0.789,-0.788 v -0.347 c 0,-0.275 -0.225,-0.5 -0.5,-0.5 h -0.666 c -0.275,0 -0.5,0.225 -0.5,0.5 v 0.347 c 0,0.275 -0.182,0.559 -0.404,0.63 -0.222,0.071 -0.916,0.192 -1.108,-0.002 l -0.245,-0.246 c -0.194,-0.192 -0.513,-0.192 -0.707,0 l -0.471,0.474 c -0.194,0.192 -0.194,0.513 -10e-4,0.706 l 0.243,0.245 c 0.193,0.195 0.268,0.521 0.159,0.727 -0.105,0.204 -0.514,0.789 -0.789,0.789 H 479.5 c -0.275,0 -0.5,0.225 -0.5,0.5 v 0.667 c 0,0.273 0.225,0.5 0.5,0.5 h 0.346 c 0.275,0 0.561,0.182 0.63,0.402 0.072,0.224 0.193,0.915 -10e-4,1.109 l -0.246,0.246 c -0.192,0.194 -0.192,0.513 0,0.707 l 0.476,0.473 c 0.194,0.194 0.513,0.194 0.707,0 l 0.244,-0.245 c 0.192,-0.192 0.521,-0.267 0.725,-0.158 0.204,0.105 0.788,0.513 0.788,0.786 v 0.348 c 0,0.273 0.225,0.5 0.5,0.5 h 0.669 c 0.275,0 0.5,-0.227 0.5,-0.5 v -0.348 c 0,-0.273 0.182,-0.559 0.404,-0.63 0.222,-0.069 0.915,-0.19 1.107,0.002 l 0.246,0.245 c 0.194,0.194 0.515,0.194 0.707,0 l 0.47,-0.471 c 0.194,-0.194 0.194,-0.513 0,-0.708 l -0.242,-0.245 c -0.194,-0.195 -0.269,-0.521 -0.159,-0.726 0.104,-0.205 0.511,-0.79 0.786,-0.789 h 0.343 z m -2.832,-0.834 c 0,0.92 -0.746,1.667 -1.666,1.667 -0.922,0 -1.668,-0.747 -1.668,-1.667 0,-0.921 0.746,-1.667 1.668,-1.667 0.92,0 1.666,0.746 1.666,1.667 z" />
      </g>
    </g>
  </g>
</svg>
