<?xml version="1.0" encoding="utf-8"?>
<!-- Generator: Adobe Illustrator 14.0.0, SVG Export Plug-In . SVG Version: 6.00 Build 43363)  -->
<!DOCTYPE svg PUBLIC "-//W3C//DTD SVG 1.1//EN" "http://www.w3.org/Graphics/SVG/1.1/DTD/svg11.dtd">
<svg version="1.1"
	 id="svg10388" xmlns:dc="http://purl.org/dc/elements/1.1/" xmlns:cc="http://creativecommons.org/ns#" xmlns:rdf="http://www.w3.org/1999/02/22-rdf-syntax-ns#" xmlns:svg="http://www.w3.org/2000/svg" xmlns:inkscape="http://www.inkscape.org/namespaces/inkscape" xmlns:sodipodi="http://sodipodi.sourceforge.net/DTD/sodipodi-0.dtd" sodipodi:docname="New document 36" inkscape:version="0.47 r22583"
	 xmlns="http://www.w3.org/2000/svg" xmlns:xlink="http://www.w3.org/1999/xlink" x="0px" y="0px" width="100px" height="100px"
	 viewBox="0 0 100 100" enable-background="new 0 0 100 100" xml:space="preserve">
<defs>
	
	
		<inkscape:perspective  inkscape:vp_z="744.09448 : 526.18109 : 1" inkscape:vp_x="0 : 526.18109 : 1" sodipodi:type="inkscape:persp3d" inkscape:vp_y="0 : 1000 : 0" inkscape:persp3d-origin="372.04724 : 350.78739 : 1" id="perspective10396">
		</inkscape:perspective>
	
		<inkscape:perspective  inkscape:vp_z="1 : 0.5 : 1" inkscape:vp_x="0 : 0.5 : 1" sodipodi:type="inkscape:persp3d" inkscape:vp_y="0 : 1000 : 0" inkscape:persp3d-origin="0.5 : 0.33333333 : 1" id="perspective10379">
		</inkscape:perspective>
</defs>
<sodipodi:namedview  pagecolor="#ffffff" inkscape:zoom="3.959798" inkscape:cx="31.262745" showgrid="false" bordercolor="#666666" inkscape:cy="45.648127" borderopacity="1.0" inkscape:pageshadow="2" inkscape:pageopacity="0.0" inkscape:window-width="673" inkscape:window-height="745" inkscape:window-x="330" inkscape:window-y="330" inkscape:current-layer="layer1" inkscape:window-maximized="0" id="base" inkscape:showpageshadow="false" inkscape:document-units="px">
	</sodipodi:namedview>
<g id="layer1" transform="translate(0,-952.36218)" inkscape:label="Layer 1" inkscape:groupmode="layer">
	<g id="g5353" transform="matrix(3.6095607,0,0,3.6095607,-974.64608,-883.98945)">
		<path id="path5355" d="M285.67,514v20c0,1.1,0.901,2,2.002,2h6.261c1.103,0,2.001-0.9,2.001-2v-20c0-1.102-0.898-2-2.001-2h-6.261
			C286.572,512,285.67,512.901,285.67,514z M287.672,520h2.001v-4h2.002v4h2.001v3h-2.001v9h-2.002v-9h-2.001V520z"/>
		<rect id="rect5361" x="287.672" y="520" opacity="0.5" enable-background="new    " width="6.004" height="2"/>
		<g>
			<path d="M280.561,529.87h-4.647l4.519-4.522h-9.041v-3.29h9.041l-4.519-4.522h4.647l6.164,6.167L280.561,529.87z"/>
		</g>
	</g>
</g>
</svg>
