<?xml version="1.0" encoding="UTF-8" standalone="no"?>
<!-- Generator: Adobe Illustrator 14.0.0, SVG Export Plug-In . SVG Version: 6.00 Build 43363)  -->

<svg
   xmlns:dc="http://purl.org/dc/elements/1.1/"
   xmlns:cc="http://creativecommons.org/ns#"
   xmlns:rdf="http://www.w3.org/1999/02/22-rdf-syntax-ns#"
   xmlns:svg="http://www.w3.org/2000/svg"
   xmlns="http://www.w3.org/2000/svg"
   xmlns:sodipodi="http://sodipodi.sourceforge.net/DTD/sodipodi-0.dtd"
   xmlns:inkscape="http://www.inkscape.org/namespaces/inkscape"
   version="1.1"
   id="svg10388"
   sodipodi:docname="fade-start.svg"
   inkscape:version="0.47 r22583"
   x="0px"
   y="0px"
   width="100px"
   height="100px"
   viewBox="0 0 100 100"
   enable-background="new 0 0 100 100"
   xml:space="preserve"><metadata
   id="metadata2990"><rdf:RDF><cc:Work
       rdf:about=""><dc:format>image/svg+xml</dc:format><dc:type
         rdf:resource="http://purl.org/dc/dcmitype/StillImage" /></cc:Work></rdf:RDF></metadata>
<defs
   id="defs2977">
	
	
		<inkscape:perspective
   inkscape:vp_z="744.09448 : 526.18109 : 1"
   inkscape:vp_x="0 : 526.18109 : 1"
   sodipodi:type="inkscape:persp3d"
   inkscape:vp_y="0 : 1000 : 0"
   inkscape:persp3d-origin="372.04724 : 350.78739 : 1"
   id="perspective10396">
		</inkscape:perspective>
	
		<inkscape:perspective
   inkscape:vp_z="1 : 0.5 : 1"
   inkscape:vp_x="0 : 0.5 : 1"
   sodipodi:type="inkscape:persp3d"
   inkscape:vp_y="0 : 1000 : 0"
   inkscape:persp3d-origin="0.5 : 0.33333333 : 1"
   id="perspective10379">
		</inkscape:perspective>
</defs>
<sodipodi:namedview
   pagecolor="#ffffff"
   inkscape:zoom="3.959798"
   inkscape:cx="31.262745"
   showgrid="false"
   bordercolor="#666666"
   inkscape:cy="45.648127"
   borderopacity="1.0"
   inkscape:pageshadow="2"
   inkscape:pageopacity="0.0"
   inkscape:window-width="673"
   inkscape:window-height="745"
   inkscape:window-x="330"
   inkscape:window-y="330"
   inkscape:current-layer="layer1"
   inkscape:window-maximized="0"
   id="base"
   inkscape:showpageshadow="false"
   inkscape:document-units="px">
	</sodipodi:namedview>
<g
   id="layer1"
   transform="translate(0,-952.36218)"
   inkscape:label="Layer 1"
   inkscape:groupmode="layer">
	<g
   id="g5353"
   transform="matrix(3.6095607,0,0,3.6095607,-974.64608,-887.98945)">
		<path
   id="path5355"
   d="m 272,514 v 20 c 0,1.1 0.9,2 2,2 h 6.257 c 1.102,0 2,-0.9 2,-2 v -20 c 0,-1.102 -0.898,-2 -2,-2 H 274 c -1.099,0 -2,0.901 -2,2 z m 2,6 h 2 v -4 h 2 v 4 h 2 v 3 h -2 v 9 h -2 v -9 h -2 v -3 z" />
		<rect
   id="rect5361"
   x="274"
   y="520"
   enable-background="new    "
   width="6"
   height="2"
   style="opacity:0.5" />
		<g
   id="g2986">
			<path
   d="m 290.163,529.87 h -4.647 l 4.519,-4.522 h -9.041 v -3.29 h 9.041 l -4.519,-4.522 h 4.647 l 6.163,6.167 -6.163,6.167 z"
   id="path2988" />
		</g>
	</g>
</g>
</svg>