<?xml version="1.0" encoding="UTF-8" standalone="no"?>
<!-- Generator: Adobe Illustrator 14.0.0, SVG Export Plug-In . SVG Version: 6.00 Build 43363)  -->

<svg
   xmlns:dc="http://purl.org/dc/elements/1.1/"
   xmlns:cc="http://creativecommons.org/ns#"
   xmlns:rdf="http://www.w3.org/1999/02/22-rdf-syntax-ns#"
   xmlns:svg="http://www.w3.org/2000/svg"
   xmlns="http://www.w3.org/2000/svg"
   xmlns:sodipodi="http://sodipodi.sourceforge.net/DTD/sodipodi-0.dtd"
   xmlns:inkscape="http://www.inkscape.org/namespaces/inkscape"
   version="1.1"
   id="Layer_1"
   x="0px"
   y="0px"
   width="100"
   height="100"
   viewBox="0 0 99.999998 99.999995"
   enable-background="new 0 0 841.89 595.28"
   xml:space="preserve"
   inkscape:version="0.47 r22583"
   sodipodi:docname="file-save-as.svg"><metadata
   id="metadata2927"><rdf:RDF><cc:Work
       rdf:about=""><dc:format>image/svg+xml</dc:format><dc:type
         rdf:resource="http://purl.org/dc/dcmitype/StillImage" /></cc:Work></rdf:RDF></metadata><defs
   id="defs2925"><inkscape:perspective
     sodipodi:type="inkscape:persp3d"
     inkscape:vp_x="0 : 297.64001 : 1"
     inkscape:vp_y="0 : 1000 : 0"
     inkscape:vp_z="841.89001 : 297.64001 : 1"
     inkscape:persp3d-origin="420.94501 : 198.42668 : 1"
     id="perspective2929" /></defs><sodipodi:namedview
   pagecolor="#ffffff"
   bordercolor="#666666"
   borderopacity="1"
   objecttolerance="10"
   gridtolerance="10"
   guidetolerance="10"
   inkscape:pageopacity="0"
   inkscape:pageshadow="2"
   inkscape:window-width="957"
   inkscape:window-height="829"
   id="namedview2923"
   showgrid="false"
   inkscape:showpageshadow="false"
   inkscape:zoom="2"
   inkscape:cx="69.471741"
   inkscape:cy="40.494405"
   inkscape:window-x="1276"
   inkscape:window-y="504"
   inkscape:window-maximized="0"
   inkscape:current-layer="Layer_1" />
<g
   id="save"
   label="#g5353_1_"
   transform="matrix(3.4267448,0,0,3.4267448,-1391.2154,-961.20212)">
	<path
   id="path5355_1_"
   d="m 406.357,289.213 v 18.334 c 0,1.008 0.825,1.834 1.833,1.834 h 18.333 c 1.01,0 1.834,-0.826 1.834,-1.834 v -18.334 c 0,-1.009 -0.824,-1.833 -1.834,-1.833 H 408.19 c -1.006,0 -1.833,0.825 -1.833,1.833 z"
   style="fill:#010101" />
	
		<rect
   id="rect5357_1_"
   x="410.82101"
   y="288.259"
   enable-background="new    "
   width="13.074"
   height="8.7709999"
   style="opacity:0.5;fill:#ffffff" />
	
		<rect
   id="rect5357_2_"
   x="412.86499"
   y="305.43701"
   enable-background="new    "
   width="1.9529999"
   height="3.9419999"
   style="opacity:0.5;fill:#ffffff" />
	<polyline
   id="polyline4470"
   enable-background="new    "
   points="411.592,309.38    411.592,304.164 422.885,304.164 422.885,309.38  "
   style="opacity:0.5;fill:none;stroke:#ffffff" />
	<polygon
   id="polygon4629_1_"
   points="435.379,296.135 429.381,300.685 431.563,307.893 425.381,303.59 419.2,307.893 421.379,300.685 415.379,296.135 422.91,295.981 425.381,288.868 427.854,295.981 "
   style="fill:#ffffff;stroke:#010101" />
</g>
</svg>