<?xml version="1.0" encoding="UTF-8" standalone="no"?>
<!-- Generator: Adobe Illustrator 14.0.0, SVG Export Plug-In . SVG Version: 6.00 Build 43363)  -->

<svg
   xmlns:dc="http://purl.org/dc/elements/1.1/"
   xmlns:cc="http://creativecommons.org/ns#"
   xmlns:rdf="http://www.w3.org/1999/02/22-rdf-syntax-ns#"
   xmlns:svg="http://www.w3.org/2000/svg"
   xmlns="http://www.w3.org/2000/svg"
   xmlns:sodipodi="http://sodipodi.sourceforge.net/DTD/sodipodi-0.dtd"
   xmlns:inkscape="http://www.inkscape.org/namespaces/inkscape"
   version="1.1"
   id="Layer_1"
   x="0px"
   y="0px"
   width="100"
   height="100"
   viewBox="0 0 99.999998 99.999995"
   enable-background="new 0 0 841.89 595.28"
   xml:space="preserve"
   inkscape:version="0.47 r22583"
   sodipodi:docname="finger.svg"><metadata
   id="metadata9367"><rdf:RDF><cc:Work
       rdf:about=""><dc:format>image/svg+xml</dc:format><dc:type
         rdf:resource="http://purl.org/dc/dcmitype/StillImage" /></cc:Work></rdf:RDF></metadata><defs
   id="defs9365"><inkscape:perspective
     sodipodi:type="inkscape:persp3d"
     inkscape:vp_x="0 : 297.64001 : 1"
     inkscape:vp_y="0 : 1000 : 0"
     inkscape:vp_z="841.89001 : 297.64001 : 1"
     inkscape:persp3d-origin="420.94501 : 198.42668 : 1"
     id="perspective9369" /></defs><sodipodi:namedview
   pagecolor="#ffffff"
   bordercolor="#666666"
   borderopacity="1"
   objecttolerance="10"
   gridtolerance="10"
   guidetolerance="10"
   inkscape:pageopacity="0"
   inkscape:pageshadow="2"
   inkscape:window-width="997"
   inkscape:window-height="887"
   id="namedview9363"
   showgrid="false"
   inkscape:zoom="5.4736123"
   inkscape:cx="58.178311"
   inkscape:cy="48.280487"
   inkscape:window-x="0"
   inkscape:window-y="0"
   inkscape:window-maximized="0"
   inkscape:current-layer="Layer_1" />
<g
   id="g9359"
   transform="matrix(0.81508074,0,0,0.81508074,-310.61456,-176.13429)">
	<path
   d="m 459.896,334.697 c -5.14,2.384 -10.993,3.576 -17.562,3.576 -7.418,0 -13.801,-1.404 -19.15,-4.212 v -17.005 c -6.783,-13.933 -11.682,-26.144 -14.702,-36.633 l 9.456,-17.244 -0.073,-19.151 v -5.801 c 0,-11.495 3.046,-17.244 9.139,-17.244 5.509,0 8.264,5.218 8.264,15.654 l -0.079,4.688 1.186,17.085 h 4.609 c 5.668,0 9.323,2.199 10.966,6.595 h 2.939 c 5.827,0 9.085,2.968 9.774,8.9 0.741,-0.105 1.351,-0.159 1.827,-0.159 3.179,0 5.337,1.498 6.477,4.49 1.139,2.994 1.709,8.622 1.709,16.886 0,4.344 -0.213,7.947 -0.636,10.807 -4.08,7.735 -8.795,13.403 -14.145,17.005 v 11.763 z"
   id="path9361" />
</g>
</svg>