<?xml version="1.0" encoding="UTF-8" standalone="no"?>
<!-- Created with Inkscape (http://www.inkscape.org/) -->

<svg
   xmlns:dc="http://purl.org/dc/elements/1.1/"
   xmlns:cc="http://creativecommons.org/ns#"
   xmlns:rdf="http://www.w3.org/1999/02/22-rdf-syntax-ns#"
   xmlns:svg="http://www.w3.org/2000/svg"
   xmlns="http://www.w3.org/2000/svg"
   xmlns:sodipodi="http://sodipodi.sourceforge.net/DTD/sodipodi-0.dtd"
   xmlns:inkscape="http://www.inkscape.org/namespaces/inkscape"
   width="100"
   height="100"
   id="svg8526"
   version="1.1"
   inkscape:version="0.47 r22583"
   sodipodi:docname="joystick.svg">
  <defs
     id="defs8528">
    <inkscape:perspective
       sodipodi:type="inkscape:persp3d"
       inkscape:vp_x="0 : 526.18109 : 1"
       inkscape:vp_y="0 : 1000 : 0"
       inkscape:vp_z="744.09448 : 526.18109 : 1"
       inkscape:persp3d-origin="372.04724 : 350.78739 : 1"
       id="perspective8534" />
    <inkscape:perspective
       id="perspective8519"
       inkscape:persp3d-origin="0.5 : 0.33333333 : 1"
       inkscape:vp_z="1 : 0.5 : 1"
       inkscape:vp_y="0 : 1000 : 0"
       inkscape:vp_x="0 : 0.5 : 1"
       sodipodi:type="inkscape:persp3d" />
  </defs>
  <sodipodi:namedview
     id="base"
     pagecolor="#ffffff"
     bordercolor="#666666"
     borderopacity="1.0"
     inkscape:pageopacity="0.0"
     inkscape:pageshadow="2"
     inkscape:zoom="3.959798"
     inkscape:cx="42.349699"
     inkscape:cy="44.156142"
     inkscape:document-units="px"
     inkscape:current-layer="layer1"
     showgrid="false"
     inkscape:showpageshadow="false"
     inkscape:window-width="809"
     inkscape:window-height="947"
     inkscape:window-x="330"
     inkscape:window-y="330"
     inkscape:window-maximized="0" />
  <metadata
     id="metadata8531">
    <rdf:RDF>
      <cc:Work
         rdf:about="">
        <dc:format>image/svg+xml</dc:format>
        <dc:type
           rdf:resource="http://purl.org/dc/dcmitype/StillImage" />
        <dc:title />
      </cc:Work>
    </rdf:RDF>
  </metadata>
  <g
     inkscape:label="Layer 1"
     inkscape:groupmode="layer"
     id="layer1"
     transform="translate(0,-952.36218)">
    <g
       transform="matrix(4.7626301,0,0,4.7626301,-393.19666,-805.49112)"
       id="g4935">
      <path
         id="path4937"
         d="m 98,375 c 0,-2.763 -2.237,-5 -5,-5 -2.761,0 -5,2.237 -5,5 0,2.42 1.718,4.437 4,4.897 v 10.1 l 2,0.004 v -10.104 c 2.282,-0.461 4,-2.478 4,-4.897 l 0,0 z m -8.001,-1.5 c 0,-0.827 0.672,-1.5 1.5,-1.5 0.828,0 1.5,0.673 1.5,1.5 0,0.826 -0.672,1.5 -1.5,1.5 -0.828,0 -1.5,-0.674 -1.5,-1.5 z" />
      <ellipse
         d="m 95.999001,388.99899 c 0,0.55284 -1.343146,1.001 -3,1.001 -1.656855,0 -3,-0.44816 -3,-1.001 0,-0.55283 1.343145,-1.001 3,-1.001 1.656854,0 3,0.44817 3,1.001 z"
         style="opacity:0.5"
         id="ellipse4939"
         sodipodi:cy="388.99899"
         sodipodi:cx="92.999001"
         sodipodi:rx="3"
         sodipodi:ry="1.001"
         enable-background="new    "
         cx="92.999001"
         cy="388.99899"
         rx="3"
         ry="1.001" />
    </g>
  </g>
</svg>
