<?xml version="1.0" encoding="UTF-8" standalone="no"?>
<!-- Created with Inkscape (http://www.inkscape.org/) -->

<svg
   xmlns:dc="http://purl.org/dc/elements/1.1/"
   xmlns:cc="http://creativecommons.org/ns#"
   xmlns:rdf="http://www.w3.org/1999/02/22-rdf-syntax-ns#"
   xmlns:svg="http://www.w3.org/2000/svg"
   xmlns="http://www.w3.org/2000/svg"
   xmlns:sodipodi="http://sodipodi.sourceforge.net/DTD/sodipodi-0.dtd"
   xmlns:inkscape="http://www.inkscape.org/namespaces/inkscape"
   width="100"
   height="100"
   id="svg10388"
   version="1.1"
   inkscape:version="0.47 r22583"
   sodipodi:docname="New document 36">
  <defs
     id="defs10390">
    <inkscape:perspective
       sodipodi:type="inkscape:persp3d"
       inkscape:vp_x="0 : 526.18109 : 1"
       inkscape:vp_y="0 : 1000 : 0"
       inkscape:vp_z="744.09448 : 526.18109 : 1"
       inkscape:persp3d-origin="372.04724 : 350.78739 : 1"
       id="perspective10396" />
    <inkscape:perspective
       id="perspective10379"
       inkscape:persp3d-origin="0.5 : 0.33333333 : 1"
       inkscape:vp_z="1 : 0.5 : 1"
       inkscape:vp_y="0 : 1000 : 0"
       inkscape:vp_x="0 : 0.5 : 1"
       sodipodi:type="inkscape:persp3d" />
  </defs>
  <sodipodi:namedview
     id="base"
     pagecolor="#ffffff"
     bordercolor="#666666"
     borderopacity="1.0"
     inkscape:pageopacity="0.0"
     inkscape:pageshadow="2"
     inkscape:zoom="3.959798"
     inkscape:cx="31.262745"
     inkscape:cy="45.648127"
     inkscape:document-units="px"
     inkscape:current-layer="layer1"
     showgrid="false"
     inkscape:showpageshadow="false"
     inkscape:window-width="673"
     inkscape:window-height="745"
     inkscape:window-x="330"
     inkscape:window-y="330"
     inkscape:window-maximized="0" />
  <metadata
     id="metadata10393">
    <rdf:RDF>
      <cc:Work
         rdf:about="">
        <dc:format>image/svg+xml</dc:format>
        <dc:type
           rdf:resource="http://purl.org/dc/dcmitype/StillImage" />
        <dc:title></dc:title>
      </cc:Work>
    </rdf:RDF>
  </metadata>
  <g
     inkscape:label="Layer 1"
     inkscape:groupmode="layer"
     id="layer1"
     transform="translate(0,-952.36218)">
    <g
       transform="matrix(3.6095607,0,0,3.6095607,-974.64608,-883.98945)"
       id="g5353">
      <path
         id="path5355"
         d="m 272,514 v 20 c 0,1.1 0.9,2 2,2 h 20 c 1.102,0 2,-0.9 2,-2 v -20 c 0,-1.102 -0.898,-2 -2,-2 h -20 c -1.099,0 -2,0.901 -2,2 z m 16,8 h 2 v -6 h 2 v 6 h 2 v 3 h -2 v 7 h -2 v -7 h -2 v -3 z m -7,3 h 2 v -9 h 2 v 9 h 2 v 3 h -2 v 4 h -2 v -4 h -2 v -3 z m -7,-5 h 2 v -4 h 2 v 4 h 2 v 3 h -2 v 9 h -2 v -9 h -2 v -3 z" />
      <rect
         style="opacity:0.5"
         id="rect5357"
         x="288"
         y="522"
         enable-background="new    "
         width="6"
         height="2" />
      <rect
         style="opacity:0.5"
         id="rect5359"
         x="281"
         y="525"
         enable-background="new    "
         width="6"
         height="2" />
      <rect
         style="opacity:0.5"
         id="rect5361"
         x="274"
         y="520"
         enable-background="new    "
         width="6"
         height="2" />
    </g>
  </g>
</svg>
