<?xml version="1.0" encoding="UTF-8" standalone="no"?>
<!-- Generator: Adobe Illustrator 14.0.0, SVG Export Plug-In . SVG Version: 6.00 Build 43363)  -->

<svg
   xmlns:dc="http://purl.org/dc/elements/1.1/"
   xmlns:cc="http://creativecommons.org/ns#"
   xmlns:rdf="http://www.w3.org/1999/02/22-rdf-syntax-ns#"
   xmlns:svg="http://www.w3.org/2000/svg"
   xmlns="http://www.w3.org/2000/svg"
   xmlns:xlink="http://www.w3.org/1999/xlink"
   xmlns:sodipodi="http://sodipodi.sourceforge.net/DTD/sodipodi-0.dtd"
   xmlns:inkscape="http://www.inkscape.org/namespaces/inkscape"
   version="1.1"
   id="Layer_1"
   x="0px"
   y="0px"
   width="254.31123"
   height="201.175"
   viewBox="0 0 254.31123 201.17499"
   enable-background="new 0 0 841.89 595.28"
   xml:space="preserve"
   inkscape:version="0.47 r22583"
   sodipodi:docname="logo-jm60.svg"><metadata
   id="metadata2984"><rdf:RDF><cc:Work
       rdf:about=""><dc:format>image/svg+xml</dc:format><dc:type
         rdf:resource="http://purl.org/dc/dcmitype/StillImage" /></cc:Work></rdf:RDF></metadata><defs
   id="defs2982"><inkscape:perspective
     sodipodi:type="inkscape:persp3d"
     inkscape:vp_x="0 : 297.64001 : 1"
     inkscape:vp_y="0 : 1000 : 0"
     inkscape:vp_z="841.89001 : 297.64001 : 1"
     inkscape:persp3d-origin="420.94501 : 198.42668 : 1"
     id="perspective2986" /></defs><sodipodi:namedview
   pagecolor="#ffffff"
   bordercolor="#666666"
   borderopacity="1"
   objecttolerance="10"
   gridtolerance="10"
   guidetolerance="10"
   inkscape:pageopacity="0"
   inkscape:pageshadow="2"
   inkscape:window-width="1117"
   inkscape:window-height="918"
   id="namedview2980"
   showgrid="false"
   inkscape:showpageshadow="false"
   showborder="false"
   inkscape:zoom="0.39645207"
   inkscape:cx="124.39687"
   inkscape:cy="99.560018"
   inkscape:window-x="0"
   inkscape:window-y="0"
   inkscape:window-maximized="0"
   inkscape:current-layer="Layer_1" />
<g
   id="g2903"
   transform="translate(-294.02576,-216.204)">
	<g
   id="g2905">
		<defs
   id="defs2907">
			<rect
   id="SVGID_1_"
   x="283.10699"
   y="212.252"
   width="272.12"
   height="210.201" />
		</defs>
		<clipPath
   id="SVGID_2_">
			<use
   xlink:href="#SVGID_1_"
   overflow="visible"
   id="use2911"
   style="overflow:visible"
   x="0"
   y="0"
   width="841.89001"
   height="595.28003" />
		</clipPath>
		<g
   clip-path="url(#SVGID_2_)"
   id="g2913">
			<defs
   id="defs2915">
				<path
   id="SVGID_3_"
   d="m 315.187,379.057 c 0,0 -34.151,-58.66 -15.684,-84.331 15.012,-20.867 42.979,-8.821 48.856,-2.167 0,0 -2.964,-43.352 7.143,-53.23 10.072,-9.848 28.295,-6.073 34.012,8.651 0,0 5.41,-20.088 23.884,-7.122 2.315,-6.767 18.896,-24.524 22.731,19.764 0,0 -0.044,-65.071 47.633,-37.698 37.255,21.383 34.948,42.394 22.766,78.988 0,0 15.26,-7.588 12.074,14.83 0,0 22.257,-13.682 0,36.221 0,0 43.654,4.553 25.178,25.18 l -228.593,0.914 z" />
			</defs>
			<clipPath
   id="SVGID_4_">
				<use
   xlink:href="#SVGID_3_"
   overflow="visible"
   id="use2919"
   style="overflow:visible"
   x="0"
   y="0"
   width="841.89001"
   height="595.28003" />
			</clipPath>
			<g
   clip-path="url(#SVGID_4_)"
   id="g2921">
				<defs
   id="defs2923">
					<rect
   id="SVGID_5_"
   x="294.02499"
   y="216.20399"
   width="254.312"
   height="201.175" />
				</defs>
				<clipPath
   id="SVGID_6_">
					<use
   xlink:href="#SVGID_5_"
   overflow="visible"
   id="use2927"
   style="overflow:visible"
   x="0"
   y="0"
   width="841.89001"
   height="595.28003" />
				</clipPath>
				<g
   clip-path="url(#SVGID_6_)"
   id="g2929">
					<defs
   id="defs2931">
						<rect
   id="SVGID_7_"
   x="294.02499"
   y="216.146"
   width="254.44501"
   height="162.993" />
					</defs>
					<clipPath
   id="SVGID_8_">
						<use
   xlink:href="#SVGID_7_"
   overflow="visible"
   id="use2935"
   style="overflow:visible"
   x="0"
   y="0"
   width="841.89001"
   height="595.28003" />
					</clipPath>
					
						<linearGradient
   id="SVGID_9_"
   gradientUnits="userSpaceOnUse"
   x1="271.1265"
   y1="383.80179"
   x2="274.6965"
   y2="383.80179"
   gradientTransform="matrix(-9.066,51.4161,51.4161,9.066,-16839.047,-17208.594)">
						<stop
   offset="0"
   style="stop-color:#FFC514"
   id="stop2938" />
						<stop
   offset="1"
   style="stop-color:#ED2227"
   id="stop2940" />
					</linearGradient>
					<polygon
   clip-path="url(#SVGID_8_)"
   points="576.344,221.06 540.797,422.65 266.151,374.225 301.697,172.632 "
   id="polygon2942"
   style="fill:url(#SVGID_9_)" />
				</g>
			</g>
		</g>
		<path
   clip-path="url(#SVGID_2_)"
   d="m 340.553,397.975 v 13.914 c 0,1.838 -0.15,2.598 -0.696,3.439 -0.779,1.143 -2.29,1.869 -4.007,1.869 -0.781,0 -1.687,-0.094 -2.257,-0.248 v -3.313 c 2.349,-0.031 2.679,-0.336 2.679,-2.502 V 397.97 l 4.281,0.005 z m -4.277,-5.336 h 4.281 v 3.945 h -4.281 v -3.945 z"
   id="path2944"
   style="fill:#010101" />
		<path
   clip-path="url(#SVGID_2_)"
   d="m 350.2,413.131 c -2.263,-0.094 -3.678,-0.576 -4.914,-1.66 -1.506,-1.42 -2.321,-3.494 -2.321,-6.055 0,-3.285 1.203,-5.639 3.617,-6.992 1.083,-0.604 2.201,-0.844 3.618,-0.844 v 3.525 c -2.021,0.057 -2.835,1.234 -2.835,4.186 0,3.016 0.753,4.133 2.835,4.219 v 3.621 z m 1.117,-3.621 c 1.953,-0.059 2.797,-1.258 2.797,-4.156 0,-2.98 -0.779,-4.156 -2.797,-4.248 v -3.525 c 2.045,0 3.456,0.514 4.785,1.689 1.662,1.502 2.415,3.34 2.415,5.992 0,4.943 -2.626,7.803 -7.2,7.865 v -3.617 z"
   id="path2946"
   style="fill:#010101" />
		<path
   clip-path="url(#SVGID_2_)"
   d="m 365.207,397.975 v 8.738 c 0,1.26 0.059,1.535 0.328,1.961 0.304,0.449 0.787,0.688 1.356,0.688 0.572,0 1.147,-0.238 1.812,-0.811 v 3.404 c -0.909,0.723 -1.993,1.082 -3.318,1.082 -1.714,0 -3.343,-0.998 -3.946,-2.414 -0.425,-0.963 -0.542,-1.9 -0.542,-4.094 v -8.559 l 4.31,0.005 z m 4.577,0 h 4.338 v 14.762 h -4.338 v -14.762 z"
   id="path2948"
   style="fill:#010101" />
		<path
   clip-path="url(#SVGID_2_)"
   d="m 377.259,397.975 h 4.457 v 14.762 h -4.457 v -14.762 z m 5.571,1.533 c 0.996,-1.111 2.325,-1.744 3.586,-1.744 0.392,0 0.724,0.031 1.234,0.148 v 3.828 c -0.721,-0.154 -1.021,-0.182 -1.445,-0.182 -1.176,0 -2.351,0.576 -3.375,1.656 v -3.706 z"
   id="path2950"
   style="fill:#010101" />
		<path
   clip-path="url(#SVGID_2_)"
   d="m 389.401,397.975 h 4.338 v 14.762 h -4.338 v -14.762 z m 8.921,5.875 c 0,-1.209 -0.062,-1.568 -0.395,-1.959 -0.304,-0.365 -0.781,-0.604 -1.323,-0.604 -0.486,0 -1.055,0.238 -1.778,0.814 v -3.404 c 1.175,-0.785 2.049,-1.08 3.221,-1.08 1.806,0 3.407,0.957 4.071,2.471 0.393,0.898 0.511,1.836 0.511,3.762 v 8.891 h -4.307 v -8.891 z"
   id="path2952"
   style="fill:#010101" />
		<path
   clip-path="url(#SVGID_2_)"
   d="m 412.362,413.131 c -4.309,0 -7.32,-3.199 -7.32,-7.684 0,-4.398 3.101,-7.896 6.993,-7.896 h 0.327 v 3.316 c -2.018,0.119 -2.952,1.541 -2.952,4.428 0,2.984 0.843,4.219 2.952,4.373 v 3.463 z m -1.809,-9.735 h 5.063 c 0,-1.541 -0.781,-2.441 -2.171,-2.533 v -3.314 c 1.54,0.064 2.654,0.393 3.678,1.117 1.897,1.326 3.043,3.857 3.043,6.809 0,0.359 -0.031,0.639 -0.064,1.086 h -9.549 v -3.165 z m 2.865,6.268 c 1.203,-0.063 1.96,-0.604 2.26,-1.566 l 4.249,0.336 c -0.511,2.828 -3.043,4.637 -6.509,4.697 v -3.467 z"
   id="path2954"
   style="fill:#010101" />
		<path
   clip-path="url(#SVGID_2_)"
   d="m 420.646,397.975 h 4.642 l 4.94,14.461 c -1.114,3.555 -2.712,4.943 -5.666,4.943 -0.838,0 -1.956,-0.092 -2.471,-0.213 v -3.254 h 0.304 c 1.567,-0.094 1.775,-0.123 2.111,-0.244 0.781,-0.24 1.207,-1.021 1.265,-2.26 l -5.125,-13.433 z m 8.106,6.744 2.082,-6.744 h 4.492 l -4.492,12.834 -2.082,-6.09 z"
   id="path2956"
   style="fill:#010101" />
		<path
   clip-path="url(#SVGID_2_)"
   d="m 437.313,397.975 h 4.371 v 14.762 h -4.371 v -14.762 z m 8.53,6.207 c 0,-1.541 -0.035,-1.777 -0.277,-2.201 -0.244,-0.422 -0.694,-0.66 -1.236,-0.66 -0.511,0 -0.932,0.178 -1.536,0.66 v -3.375 c 0.997,-0.75 1.809,-1.057 2.804,-1.057 1.9,0 3.526,1.057 4.161,2.686 0.333,0.898 0.418,1.682 0.418,3.947 v 8.555 h -4.333 v -8.555 z m 8.494,-0.276 c 0,-1.176 -0.095,-1.654 -0.365,-2.051 -0.238,-0.389 -0.718,-0.633 -1.261,-0.633 -0.514,0 -1.025,0.244 -1.567,0.754 -0.029,-1.086 -0.244,-1.865 -0.783,-2.893 0.876,-0.932 2.293,-1.535 3.68,-1.535 1.803,0 3.371,0.898 4.066,2.35 0.419,0.936 0.544,1.746 0.544,4.008 v 8.83 h -4.311 l -0.003,-8.83 z"
   id="path2958"
   style="fill:#010101" />
		<path
   clip-path="url(#SVGID_2_)"
   d="m 469.586,406.441 c -3.258,0 -4.219,0.422 -4.219,1.807 0,0.963 0.689,1.598 1.715,1.598 0.846,0 1.625,-0.244 2.504,-0.785 v 3.135 c -0.848,0.66 -2.144,1.057 -3.469,1.057 -2.985,0 -5.063,-1.963 -5.063,-4.732 0,-2.172 0.935,-3.525 2.866,-4.219 1.322,-0.482 2.861,-0.723 4.487,-0.723 0.211,0 0.664,0.027 1.179,0.057 v 2.805 z m -1.809,-5.427 c -1.296,0.059 -1.867,0.604 -1.929,1.811 h -3.978 c 0,-0.994 0.211,-1.779 0.726,-2.59 0.478,-0.758 1.081,-1.361 1.775,-1.723 0.873,-0.453 2.167,-0.781 3.135,-0.781 h 0.271 v 3.283 z m 1.083,-3.284 c 1.929,-0.033 3.524,0.514 4.581,1.504 1.083,1.023 1.386,2.049 1.386,4.855 v 5.152 c 0,2.197 0.062,2.623 0.543,3.494 h -4.281 c -0.239,-0.422 -0.333,-0.723 -0.389,-1.145 -0.033,-0.334 -0.062,-0.721 -0.062,-1.178 -0.033,-0.994 -0.064,-1.713 -0.064,-1.957 v -5.061 c 0,-1.359 -0.118,-1.721 -0.661,-2.076 -0.271,-0.184 -0.538,-0.275 -1.053,-0.305 v -3.283 z"
   id="path2960"
   style="fill:#010101" />
		<path
   clip-path="url(#SVGID_2_)"
   d="m 477.785,397.975 h 4.338 v 14.762 h -4.338 v -14.762 z m 8.914,5.875 c 0,-1.209 -0.062,-1.568 -0.395,-1.959 -0.3,-0.365 -0.781,-0.604 -1.32,-0.604 -0.486,0 -1.059,0.238 -1.782,0.814 v -3.404 c 1.178,-0.785 2.053,-1.08 3.229,-1.08 1.803,0 3.403,0.957 4.067,2.471 0.39,0.898 0.512,1.836 0.512,3.762 v 8.891 h -4.308 l -0.003,-8.891 z"
   id="path2962"
   style="fill:#010101" />
		<path
   clip-path="url(#SVGID_2_)"
   d="m 498.615,412.896 h -0.18 c -1.557,-0.07 -2.666,-0.568 -3.506,-1.563 -1.225,-1.451 -1.854,-3.486 -1.854,-5.953 0,-3.42 1.333,-6.219 3.415,-7.219 0.61,-0.293 1.222,-0.43 2.125,-0.471 v 2.508 c -0.746,0.07 -1.175,0.299 -1.561,0.75 -0.589,0.701 -0.906,2.197 -0.906,4.342 0,3.463 0.655,4.822 2.467,4.955 v 2.651 z m 0.819,-2.65 c 1.313,-0.133 2.103,-1.15 2.103,-2.646 0,-1.607 -0.975,-2.602 -2.535,-2.602 -0.832,0 -1.379,0.271 -1.989,0.973 v -2.713 c 0.725,-0.545 1.581,-0.84 2.579,-0.84 2.896,0 4.863,2.061 4.863,5.09 0,3.125 -1.988,5.273 -5.024,5.389 l 0.003,-2.651 z m 0.02,-12.555 c 1.765,0.068 2.781,0.432 3.622,1.318 0.72,0.717 1.085,1.557 1.149,2.6 l -3.118,0.229 c -0.093,-1.047 -0.631,-1.586 -1.653,-1.635 v -2.512 z"
   id="path2964"
   style="fill:#f26724" />
		<path
   clip-path="url(#SVGID_2_)"
   d="m 510.812,412.896 c -1.583,0 -2.508,-0.32 -3.394,-1.111 -1.356,-1.221 -2.014,-3.258 -2.014,-6.201 0,-3.641 0.929,-6.018 2.808,-7.238 0.702,-0.457 1.403,-0.637 2.6,-0.658 v 2.668 c -1.646,0.16 -2.286,1.564 -2.286,4.998 0,3.627 0.568,4.822 2.286,4.887 v 2.655 z m 0.814,-2.65 c 0.746,-0.039 1.132,-0.223 1.47,-0.635 0.548,-0.631 0.814,-2.104 0.814,-4.275 0,-3.412 -0.656,-4.859 -2.284,-4.977 v -2.668 c 1.381,0 2.284,0.314 3.166,1.107 1.493,1.336 2.219,3.463 2.219,6.561 0,3.547 -0.861,5.822 -2.625,6.902 -0.742,0.457 -1.536,0.635 -2.76,0.635 v -2.65 z"
   id="path2966"
   style="fill:#f26724" />
		<path
   clip-path="url(#SVGID_2_)"
   d="m 371.759,276.789 c 0,0 -2.872,-45.195 33.958,-23.455 0,-0.001 -29.544,-15.504 -33.958,23.455"
   id="path2968"
   style="fill:#ffffff" />
		<path
   clip-path="url(#SVGID_2_)"
   d="m 421.316,297.061 c 0,0 -3.96,-62.371 46.869,-32.373 10e-4,0 -40.776,-21.391 -46.869,32.373"
   id="path2970"
   style="fill:#ffffff" />
		<path
   clip-path="url(#SVGID_2_)"
   d="m 399.604,262.246 c 0,0 15.178,-31.729 27.483,-1.014 0,0 -11.617,-23.474 -27.483,1.014"
   id="path2972"
   style="fill:#ffffff" />
		<path
   clip-path="url(#SVGID_2_)"
   d="m 312.674,329.393 c 0,0 18.531,-34.117 28.779,-1.258 0,0 -9.081,-24.959 -28.779,1.258"
   id="path2974"
   style="fill:#ffffff" />
		<path
   clip-path="url(#SVGID_2_)"
   d="m 334.743,315.5 c 0,0 9.439,-44.293 39.034,-13.424 0,0 -20.814,-24.855 -39.034,13.424"
   id="path2976"
   style="fill:#ffffff" />
		<path
   clip-path="url(#SVGID_2_)"
   d="m 367.034,382.592 -0.256,-9.824 23.652,-0.064 v -2.426 l -23.652,2.49 21.694,-81.466 2.204,73.755 1.421,-93.1 c 0,0 11.596,3.01 14.521,16.046 2.923,13.041 21.471,80.22 21.471,80.22 l -33.974,-0.021 -0.082,4.48 9.357,-1.186 4.218,-1.35 h 11.662 l 0.244,2.867 14.592,1.258 4.61,7.561 -71.682,0.76 z"
   id="path2978"
   style="fill:#ffffff" />
	</g>
</g>
</svg>