<?xml version="1.0" encoding="UTF-8" standalone="no"?>
<!-- Created with Inkscape (http://www.inkscape.org/) -->

<svg
   xmlns:dc="http://purl.org/dc/elements/1.1/"
   xmlns:cc="http://creativecommons.org/ns#"
   xmlns:rdf="http://www.w3.org/1999/02/22-rdf-syntax-ns#"
   xmlns:svg="http://www.w3.org/2000/svg"
   xmlns="http://www.w3.org/2000/svg"
   xmlns:sodipodi="http://sodipodi.sourceforge.net/DTD/sodipodi-0.dtd"
   xmlns:inkscape="http://www.inkscape.org/namespaces/inkscape"
   width="100"
   height="100"
   id="svg4817"
   version="1.1"
   inkscape:version="0.47 r22583"
   sodipodi:docname="man-walk.svg">
  <defs
     id="defs4819">
    <inkscape:perspective
       sodipodi:type="inkscape:persp3d"
       inkscape:vp_x="0 : 526.18109 : 1"
       inkscape:vp_y="0 : 1000 : 0"
       inkscape:vp_z="744.09448 : 526.18109 : 1"
       inkscape:persp3d-origin="372.04724 : 350.78739 : 1"
       id="perspective4825" />
    <inkscape:perspective
       id="perspective4812"
       inkscape:persp3d-origin="0.5 : 0.33333333 : 1"
       inkscape:vp_z="1 : 0.5 : 1"
       inkscape:vp_y="0 : 1000 : 0"
       inkscape:vp_x="0 : 0.5 : 1"
       sodipodi:type="inkscape:persp3d" />
    <inkscape:perspective
       id="perspective4861"
       inkscape:persp3d-origin="0.5 : 0.33333333 : 1"
       inkscape:vp_z="1 : 0.5 : 1"
       inkscape:vp_y="0 : 1000 : 0"
       inkscape:vp_x="0 : 0.5 : 1"
       sodipodi:type="inkscape:persp3d" />
  </defs>
  <sodipodi:namedview
     id="base"
     pagecolor="#ffffff"
     bordercolor="#666666"
     borderopacity="1.0"
     inkscape:pageopacity="0.0"
     inkscape:pageshadow="2"
     inkscape:zoom="3.959798"
     inkscape:cx="28.741345"
     inkscape:cy="47.036267"
     inkscape:document-units="px"
     inkscape:current-layer="layer1"
     showgrid="false"
     inkscape:showpageshadow="false"
     inkscape:window-width="723"
     inkscape:window-height="816"
     inkscape:window-x="110"
     inkscape:window-y="110"
     inkscape:window-maximized="0" />
  <metadata
     id="metadata4822">
    <rdf:RDF>
      <cc:Work
         rdf:about="">
        <dc:format>image/svg+xml</dc:format>
        <dc:type
           rdf:resource="http://purl.org/dc/dcmitype/StillImage" />
        <dc:title />
      </cc:Work>
    </rdf:RDF>
  </metadata>
  <g
     inkscape:label="Layer 1"
     inkscape:groupmode="layer"
     id="layer1"
     transform="translate(0,-952.36218)">
    <g
       transform="matrix(3.4827791,0,0,3.4827791,-272.03633,-817.58881)"
       id="g4849">
      <path
         d="m 97.407,529.514 -3.656,-5.316 0.195,-1.717 4.018,2.831 1.036,-1.485 -4.722,-3.325 0.407,-4.036 -4.769,-2.396 -4.313,4.705 -0.155,6.844 h 2.027 l 0.06,-5.87 1.874,-1.643 -0.071,6.625 0.162,0.154 -4.438,11.627 1.929,0.341 4.891,-9.872 3.083,3.841 1.665,5.979 h 2.308 l -1.531,-7.287 0,0 z"
         inkscape:label="#path5333"
         id="walker" />
      <circle
         d="m 95.981003,512.25 c 0,1.24264 -1.00736,2.25 -2.25,2.25 -1.242641,0 -2.25,-1.00736 -2.25,-2.25 0,-1.24264 1.007359,-2.25 2.25,-2.25 1.24264,0 2.25,1.00736 2.25,2.25 z"
         r="2.25"
         cy="512.25"
         cx="93.731003"
         sodipodi:ry="2.25"
         sodipodi:rx="2.25"
         sodipodi:cx="93.731003"
         sodipodi:cy="512.25"
         id="circle5335" />
    </g>
  </g>
</svg>
