<?xml version="1.0" encoding="UTF-8" standalone="no"?>
<!-- Created with Inkscape (http://www.inkscape.org/) -->

<svg
   xmlns:dc="http://purl.org/dc/elements/1.1/"
   xmlns:cc="http://creativecommons.org/ns#"
   xmlns:rdf="http://www.w3.org/1999/02/22-rdf-syntax-ns#"
   xmlns:svg="http://www.w3.org/2000/svg"
   xmlns="http://www.w3.org/2000/svg"
   xmlns:sodipodi="http://sodipodi.sourceforge.net/DTD/sodipodi-0.dtd"
   xmlns:inkscape="http://www.inkscape.org/namespaces/inkscape"
   width="100"
   height="100"
   id="svg4548"
   version="1.1"
   inkscape:version="0.47 r22583"
   sodipodi:docname="open.svg">
  <defs
     id="defs4550">
    <inkscape:perspective
       sodipodi:type="inkscape:persp3d"
       inkscape:vp_x="0 : 526.18109 : 1"
       inkscape:vp_y="0 : 1000 : 0"
       inkscape:vp_z="744.09448 : 526.18109 : 1"
       inkscape:persp3d-origin="372.04724 : 350.78739 : 1"
       id="perspective4556" />
    <inkscape:perspective
       id="perspective4538"
       inkscape:persp3d-origin="0.5 : 0.33333333 : 1"
       inkscape:vp_z="1 : 0.5 : 1"
       inkscape:vp_y="0 : 1000 : 0"
       inkscape:vp_x="0 : 0.5 : 1"
       sodipodi:type="inkscape:persp3d" />
  </defs>
  <sodipodi:namedview
     id="base"
     pagecolor="#ffffff"
     bordercolor="#666666"
     borderopacity="1.0"
     inkscape:pageopacity="0.0"
     inkscape:pageshadow="2"
     inkscape:zoom="2"
     inkscape:cx="50.896243"
     inkscape:cy="41.561943"
     inkscape:document-units="px"
     inkscape:current-layer="layer1"
     showgrid="false"
     inkscape:window-width="1165"
     inkscape:window-height="888"
     inkscape:window-x="811"
     inkscape:window-y="28"
     inkscape:window-maximized="0"
     showborder="true"
     inkscape:showpageshadow="false" />
  <metadata
     id="metadata4553">
    <rdf:RDF>
      <cc:Work
         rdf:about="">
        <dc:format>image/svg+xml</dc:format>
        <dc:type
           rdf:resource="http://purl.org/dc/dcmitype/StillImage" />
        <dc:title />
      </cc:Work>
    </rdf:RDF>
  </metadata>
  <g
     inkscape:label="Layer 1"
     inkscape:groupmode="layer"
     id="layer1"
     transform="translate(-277.03341,-429.25849)">
    <g
       transform="matrix(3.2117865,0,0,3.5098221,-445.02725,-1477.2595)"
       id="open"
       inkscape:label="#g4472">
      <g
         id="g4474">
        <g
           id="g4476">
          <g
             id="g4478">
            <path
               d="m 226.684,571.481 v -17.194 c 0,-1.226 0.49,-1.84 1.47,-1.84 h 0.683 c 0.341,0 0.584,-0.064 0.728,-0.2 0.144,-0.132 0.254,-0.392 0.336,-0.778 l 0.119,-0.594 c 0.128,-0.623 0.291,-1.003 0.49,-1.142 0.191,-0.138 0.653,-0.208 1.387,-0.208 h 4.567 c 0.661,0 1.084,0.064 1.267,0.194 0.184,0.127 0.343,0.474 0.478,1.037 l 0.132,0.549 c 0.136,0.563 0.261,0.896 0.376,0.996 0.116,0.098 0.436,0.146 0.963,0.146 h 8.261 c 0.567,0 0.951,0.133 1.155,0.395 0.203,0.261 0.304,0.753 0.304,1.477 v 1.424 h 4.747 c 0.861,0 1.304,0.188 1.327,0.563 0.008,0.079 -0.131,0.479 -0.418,1.201 l -5.656,13.976 h -22.716 z"
               id="path4480" />
          </g>
        </g>
      </g>
      <path
         style="opacity:0.5;fill:#ffffff"
         d="m 227.605,570.684 h 21.391 l 5.296,-13.173 c 0.176,-0.475 0.263,-0.742 0.263,-0.801 -0.023,-0.207 -0.271,-0.313 -0.741,-0.313 h -19.298 c -0.463,0 -0.782,0.064 -0.957,0.194 -0.176,0.128 -0.355,0.42 -0.538,0.873 l -5.416,13.22 z"
         id="path4482" />
    </g>
  </g>
</svg>
