<?xml version="1.0" encoding="UTF-8" standalone="no"?>
<!-- Created with Inkscape (http://www.inkscape.org/) -->

<svg
   xmlns:dc="http://purl.org/dc/elements/1.1/"
   xmlns:cc="http://creativecommons.org/ns#"
   xmlns:rdf="http://www.w3.org/1999/02/22-rdf-syntax-ns#"
   xmlns:svg="http://www.w3.org/2000/svg"
   xmlns="http://www.w3.org/2000/svg"
   xmlns:sodipodi="http://sodipodi.sourceforge.net/DTD/sodipodi-0.dtd"
   xmlns:inkscape="http://www.inkscape.org/namespaces/inkscape"
   width="100"
   height="100"
   id="svg4751"
   version="1.1"
   inkscape:version="0.47 r22583"
   sodipodi:docname="outlet.svg">
  <defs
     id="defs4753">
    <inkscape:perspective
       sodipodi:type="inkscape:persp3d"
       inkscape:vp_x="0 : 526.18109 : 1"
       inkscape:vp_y="0 : 1000 : 0"
       inkscape:vp_z="744.09448 : 526.18109 : 1"
       inkscape:persp3d-origin="372.04724 : 350.78739 : 1"
       id="perspective4759" />
    <inkscape:perspective
       id="perspective4745"
       inkscape:persp3d-origin="0.5 : 0.33333333 : 1"
       inkscape:vp_z="1 : 0.5 : 1"
       inkscape:vp_y="0 : 1000 : 0"
       inkscape:vp_x="0 : 0.5 : 1"
       sodipodi:type="inkscape:persp3d" />
  </defs>
  <sodipodi:namedview
     id="base"
     pagecolor="#ffffff"
     bordercolor="#666666"
     borderopacity="1.0"
     inkscape:pageopacity="0.0"
     inkscape:pageshadow="2"
     inkscape:zoom="1.979899"
     inkscape:cx="92.351429"
     inkscape:cy="66.161694"
     inkscape:document-units="px"
     inkscape:current-layer="layer1"
     showgrid="false"
     inkscape:showpageshadow="false"
     inkscape:window-width="632"
     inkscape:window-height="771"
     inkscape:window-x="352"
     inkscape:window-y="352"
     inkscape:window-maximized="0" />
  <metadata
     id="metadata4756">
    <rdf:RDF>
      <cc:Work
         rdf:about="">
        <dc:format>image/svg+xml</dc:format>
        <dc:type
           rdf:resource="http://purl.org/dc/dcmitype/StillImage" />
        <dc:title />
      </cc:Work>
    </rdf:RDF>
  </metadata>
  <g
     inkscape:label="Layer 1"
     inkscape:groupmode="layer"
     id="layer1"
     transform="translate(0,-952.36218)">
    <g
       transform="matrix(3.9487027,0,0,3.9487027,-123.06669,-109.13374)"
       id="socket"
       inkscape:label="#g4799">
      <path
         id="path4801"
         d="m 50.87,274 c -5.925,0 -7.897,0 -13.825,0 -6.728,0 -6.727,20 0,20 5.924,0 7.899,0 13.825,0 6.698,0 6.698,-20 0,-20 z m -9.915,10 c 0,0.553 -0.447,1 -1,1 -0.552,0 -1,-0.447 -1,-1 v -4 c 0,-0.555 0.448,-1 1,-1 0.553,0 1,0.445 1,1 v 4 z m 5,7 h -4 v -1 c 0,-1.105 0.896,-2 2,-2 1.104,0 2,0.895 2,2 v 1 z m 3,-7 c 0,0.553 -0.447,1 -1,1 -0.552,0 -1,-0.447 -1,-1 v -4 c 0,-0.555 0.448,-1 1,-1 0.553,0 1,0.445 1,1 v 4 z" />
    </g>
  </g>
</svg>
