<?xml version="1.0" encoding="utf-8"?>
<!-- Generator: Adobe Illustrator 14.0.0, SVG Export Plug-In . SVG Version: 6.00 Build 43363)  -->
<!DOCTYPE svg PUBLIC "-//W3C//DTD SVG 1.1//EN" "http://www.w3.org/Graphics/SVG/1.1/DTD/svg11.dtd">
<svg version="1.1"
	 id="Layer_1" sodipodi:docname="timer.svg" inkscape:version="0.47 r22583" xmlns:dc="http://purl.org/dc/elements/1.1/" xmlns:cc="http://creativecommons.org/ns#" xmlns:rdf="http://www.w3.org/1999/02/22-rdf-syntax-ns#" xmlns:svg="http://www.w3.org/2000/svg" xmlns:inkscape="http://www.inkscape.org/namespaces/inkscape" xmlns:sodipodi="http://sodipodi.sourceforge.net/DTD/sodipodi-0.dtd"
	 xmlns="http://www.w3.org/2000/svg" xmlns:xlink="http://www.w3.org/1999/xlink" x="0px" y="0px" width="100px" height="100px"
	 viewBox="0 0 100 100" enable-background="new 0 0 100 100" xml:space="preserve">
<defs>
	
	
		<inkscape:perspective  id="perspective9369" inkscape:persp3d-origin="420.94501 : 198.42668 : 1" inkscape:vp_y="0 : 1000 : 0" sodipodi:type="inkscape:persp3d" inkscape:vp_x="0 : 297.64001 : 1" inkscape:vp_z="841.89001 : 297.64001 : 1">
		</inkscape:perspective>
	
		<inkscape:perspective  id="perspective2821" inkscape:persp3d-origin="0.5 : 0.33333333 : 1" inkscape:vp_y="0 : 1000 : 0" sodipodi:type="inkscape:persp3d" inkscape:vp_x="0 : 0.5 : 1" inkscape:vp_z="1 : 0.5 : 1">
		</inkscape:perspective>
	
		<inkscape:perspective  id="perspective4493" inkscape:persp3d-origin="0.5 : 0.33333333 : 1" inkscape:vp_y="0 : 1000 : 0" sodipodi:type="inkscape:persp3d" inkscape:vp_x="0 : 0.5 : 1" inkscape:vp_z="1 : 0.5 : 1">
		</inkscape:perspective>
</defs>
<sodipodi:namedview  id="namedview9363" inkscape:current-layer="Layer_1" inkscape:window-y="0" inkscape:window-x="0" inkscape:window-height="887" inkscape:window-width="997" inkscape:pageopacity="0" inkscape:pageshadow="2" inkscape:window-maximized="0" borderopacity="1" inkscape:cy="48.280487" bordercolor="#666666" objecttolerance="10" showgrid="false" inkscape:cx="58.178311" inkscape:zoom="5.4736123" pagecolor="#ffffff" gridtolerance="10" guidetolerance="10">
	</sodipodi:namedview>
<g id="g5003">
	<path id="path5005" d="M54.251,52.592V38.397h-6.636v14.188c-1.978,1.147-3.319,3.263-3.319,5.723c0,2.443,1.342,4.563,3.319,5.716
		v4.239h6.636v-4.239c1.983-1.153,3.319-3.259,3.319-5.716C57.57,55.858,56.229,53.735,54.251,52.592z"/>
	<path id="path5007" d="M79.145,34.589l7.271-7.274l-7.039-7.038l-7.265,7.275c-5.304-4.021-11.698-6.646-18.711-7.265v-6.818h3.319
		V6.833H43.444v6.636h3.319v6.805C28.17,21.952,13.582,37.565,13.582,56.608c0,20.149,16.338,36.5,36.501,36.5
		c20.156,0,36.501-16.351,36.501-36.5C86.584,48.323,83.794,40.71,79.145,34.589z M50.083,83.903
		c-15.052,0-27.296-12.244-27.296-27.295c0-15.06,12.244-27.298,27.296-27.298c15.052,0,27.295,12.238,27.295,27.298
		C77.378,71.659,65.135,83.903,50.083,83.903z"/>
</g>
</svg>
