<?xml version="1.0" encoding="UTF-8" standalone="no"?>
<!-- Generator: Adobe Illustrator 14.0.0, SVG Export Plug-In . SVG Version: 6.00 Build 43363)  -->

<svg xmlns:dc="http://purl.org/dc/elements/1.1/" xmlns:cc="http://creativecommons.org/ns#" xmlns:rdf="http://www.w3.org/1999/02/22-rdf-syntax-ns#" xmlns:svg="http://www.w3.org/2000/svg" xmlns="http://www.w3.org/2000/svg" xmlns:sodipodi="http://sodipodi.sourceforge.net/DTD/sodipodi-0.dtd" xmlns:inkscape="http://www.inkscape.org/namespaces/inkscape" version="1.1" id="Layer_1" x="0px" y="0px" width="100" height="100" viewBox="0 0 99.999998 99.999995" enable-background="new 0 0 841.89 595.28" xml:space="preserve" inkscape:version="0.47 r22583" sodipodi:docname="timer.svg"><metadata id="metadata9367"><rdf:RDF><cc:Work rdf:about=""><dc:format>image/svg+xml</dc:format><dc:type rdf:resource="http://purl.org/dc/dcmitype/StillImage" /><dc:title></dc:title></cc:Work></rdf:RDF></metadata><defs id="defs9365"><inkscape:perspective sodipodi:type="inkscape:persp3d" inkscape:vp_x="0 : 297.64001 : 1" inkscape:vp_y="0 : 1000 : 0" inkscape:vp_z="841.89001 : 297.64001 : 1" inkscape:persp3d-origin="420.94501 : 198.42668 : 1" id="perspective9369" /><inkscape:perspective id="perspective2821" inkscape:persp3d-origin="0.5 : 0.33333333 : 1" inkscape:vp_z="1 : 0.5 : 1" inkscape:vp_y="0 : 1000 : 0" inkscape:vp_x="0 : 0.5 : 1" sodipodi:type="inkscape:persp3d" /><inkscape:perspective id="perspective4493" inkscape:persp3d-origin="0.5 : 0.33333333 : 1" inkscape:vp_z="1 : 0.5 : 1" inkscape:vp_y="0 : 1000 : 0" inkscape:vp_x="0 : 0.5 : 1" sodipodi:type="inkscape:persp3d" /></defs><sodipodi:namedview pagecolor="#ffffff" bordercolor="#666666" borderopacity="1" objecttolerance="10" gridtolerance="10" guidetolerance="10" inkscape:pageopacity="0" inkscape:pageshadow="2" inkscape:window-width="997" inkscape:window-height="887" id="namedview9363" showgrid="false" inkscape:zoom="5.4736123" inkscape:cx="58.178311" inkscape:cy="48.280487" inkscape:window-x="0" inkscape:window-y="0" inkscape:window-maximized="0" inkscape:current-layer="Layer_1" />

<g transform="matrix(3.8089311,0,0,3.8089311,-117.44327,-300.75405)" id="g4479"><g id="g4481"><path id="path4483" d="m 44,83 c 4.963,0 9,4.038 9,9 0,4.963 -4.037,9 -9,9 -4.962,0 -9,-4.037 -9,-9 0,-4.962 4.038,-9 9,-9 m 0,-3 c -6.627,0 -12,5.373 -12,12 0,6.627 5.373,12 12,12 6.627,0 12,-5.373 12,-12 0,-6.627 -5.373,-12 -12,-12 l 0,0 z" /></g><g id="g4485"><path id="path4487" d="m 47,96.5 c -0.384,0 -0.768,-0.146 -1.061,-0.439 L 42.94,93.062 c -0.271,-0.271 -0.439,-0.644 -0.441,-1.057 l 0,0 c 0,-0.002 0,-0.003 0,-0.004 v -6 c 0,-0.829 0.671,-1.5 1.5,-1.5 0.829,0 1.5,0.671 1.5,1.5 v 5.379 l 2.563,2.561 c 0.586,0.585 0.586,1.536 0,2.121 C 47.768,96.354 47.384,96.5 47,96.5 l 0,0 z" /></g></g></svg>