<?xml version="1.0" encoding="UTF-8" standalone="no"?>
<!-- Created with Inkscape (http://www.inkscape.org/) -->

<svg
   xmlns:dc="http://purl.org/dc/elements/1.1/"
   xmlns:cc="http://creativecommons.org/ns#"
   xmlns:rdf="http://www.w3.org/1999/02/22-rdf-syntax-ns#"
   xmlns:svg="http://www.w3.org/2000/svg"
   xmlns="http://www.w3.org/2000/svg"
   xmlns:sodipodi="http://sodipodi.sourceforge.net/DTD/sodipodi-0.dtd"
   xmlns:inkscape="http://www.inkscape.org/namespaces/inkscape"
   width="100"
   height="100"
   id="svg8609"
   version="1.1"
   inkscape:version="0.47 r22583"
   sodipodi:docname="twocolor.svg">
  <defs
     id="defs8611">
    <inkscape:perspective
       sodipodi:type="inkscape:persp3d"
       inkscape:vp_x="0 : 526.18109 : 1"
       inkscape:vp_y="0 : 1000 : 0"
       inkscape:vp_z="744.09448 : 526.18109 : 1"
       inkscape:persp3d-origin="372.04724 : 350.78739 : 1"
       id="perspective8617" />
    <inkscape:perspective
       id="perspective8601"
       inkscape:persp3d-origin="0.5 : 0.33333333 : 1"
       inkscape:vp_z="1 : 0.5 : 1"
       inkscape:vp_y="0 : 1000 : 0"
       inkscape:vp_x="0 : 0.5 : 1"
       sodipodi:type="inkscape:persp3d" />
  </defs>
  <sodipodi:namedview
     id="base"
     pagecolor="#ffffff"
     bordercolor="#666666"
     borderopacity="1.0"
     inkscape:pageopacity="0.0"
     inkscape:pageshadow="2"
     inkscape:zoom="5.6"
     inkscape:cx="55.379174"
     inkscape:cy="58.081439"
     inkscape:document-units="px"
     inkscape:current-layer="layer1"
     showgrid="false"
     inkscape:showpageshadow="true"
     inkscape:window-width="1142"
     inkscape:window-height="1012"
     inkscape:window-x="66"
     inkscape:window-y="66"
     inkscape:window-maximized="0" />
  <metadata
     id="metadata8614">
    <rdf:RDF>
      <cc:Work
         rdf:about="">
        <dc:format>image/svg+xml</dc:format>
        <dc:type
           rdf:resource="http://purl.org/dc/dcmitype/StillImage" />
        <dc:title />
      </cc:Work>
    </rdf:RDF>
  </metadata>
  <g
     inkscape:label="Layer 1"
     inkscape:groupmode="layer"
     id="layer1"
     transform="translate(0,-952.36218)">
    <g
       transform="matrix(4.3571429,0,0,4.3571429,-351.75,-438.13783)"
       id="contrast"
       inkscape:label="#g4889">
      <path
         id="path4891"
         d="m 92,323.819 c 4.514,0 8.184,3.671 8.184,8.183 0,4.512 -3.67,8.183 -8.184,8.183 -4.511,0 -8.182,-3.671 -8.182,-8.183 0,-4.512 3.671,-8.183 8.182,-8.183 M 92,322 c -5.521,0 -10,4.479 -10,10 0,5.521 4.479,10 10,10 5.522,0 10,-4.479 10,-10 0,-5.522 -4.478,-10 -10,-10 l 0,0 z" />
      <g
         style="opacity:0.5"
         id="g4893">
        <path
           id="path4895"
           d="m 92,322.907 v 18.184 c 0,0 10,-1.818 9.09,-9.094 -0.908,-7.269 -9.09,-9.09 -9.09,-9.09 z" />
      </g>
    </g>
  </g>
</svg>
