<?xml version="1.0" encoding="utf-8"?>
<!-- Generator: Adobe Illustrator 14.0.0, SVG Export Plug-In . SVG Version: 6.00 Build 43363)  -->
<!DOCTYPE svg PUBLIC "-//W3C//DTD SVG 1.1//EN" "http://www.w3.org/Graphics/SVG/1.1/DTD/svg11.dtd" [
	<!ENTITY ns_flows "http://ns.adobe.com/Flows/1.0/">
	<!ENTITY ns_extend "http://ns.adobe.com/Extensibility/1.0/">
	<!ENTITY ns_ai "http://ns.adobe.com/AdobeIllustrator/10.0/">
	<!ENTITY ns_graphs "http://ns.adobe.com/Graphs/1.0/">
]>
<svg version="1.1"
	 id="Layer_1" xmlns:x="&ns_extend;" xmlns:i="&ns_ai;" xmlns:graph="&ns_graphs;" xmlns:dc="http://purl.org/dc/elements/1.1/" xmlns:cc="http://creativecommons.org/ns#" xmlns:rdf="http://www.w3.org/1999/02/22-rdf-syntax-ns#" xmlns:svg="http://www.w3.org/2000/svg" xmlns:inkscape="http://www.inkscape.org/namespaces/inkscape" xmlns:sodipodi="http://sodipodi.sourceforge.net/DTD/sodipodi-0.dtd" inkscape:version="0.47 r22583" sodipodi:docname="file-save-as.svg"
	 xmlns="http://www.w3.org/2000/svg" xmlns:xlink="http://www.w3.org/1999/xlink" xmlns:a="http://ns.adobe.com/AdobeSVGViewerExtensions/3.0/"
	 x="0px" y="0px" width="100px" height="100px" viewBox="0 0 100 100" enable-background="new 0 0 100 100" xml:space="preserve">
<defs>
	
	
		<inkscape:perspective  id="perspective2929" inkscape:vp_y="0 : 1000 : 0" sodipodi:type="inkscape:persp3d" inkscape:vp_x="0 : 297.64001 : 1" inkscape:vp_z="841.89001 : 297.64001 : 1" inkscape:persp3d-origin="420.94501 : 198.42668 : 1">
		</inkscape:perspective>
</defs>
<sodipodi:namedview  id="namedview2923" borderopacity="1" inkscape:cy="40.494405" bordercolor="#666666" objecttolerance="10" showgrid="false" inkscape:cx="69.471741" inkscape:zoom="2" pagecolor="#ffffff" gridtolerance="10" guidetolerance="10" inkscape:window-maximized="0" inkscape:current-layer="Layer_1" inkscape:window-y="504" inkscape:window-x="1276" inkscape:window-height="829" inkscape:window-width="957" inkscape:pageopacity="0" inkscape:pageshadow="2" inkscape:showpageshadow="false">
	</sodipodi:namedview>
<defs>
	
	
		<inkscape:perspective  id="perspective2929" inkscape:vp_y="0 : 1000 : 0" sodipodi:type="inkscape:persp3d" inkscape:vp_x="0 : 297.64001 : 1" inkscape:vp_z="841.89001 : 297.64001 : 1" inkscape:persp3d-origin="420.94501 : 198.42668 : 1">
		</inkscape:perspective>
</defs>
<sodipodi:namedview  id="namedview2923" borderopacity="1" inkscape:cy="40.494405" bordercolor="#666666" objecttolerance="10" showgrid="false" inkscape:cx="69.471741" inkscape:zoom="2" pagecolor="#ffffff" gridtolerance="10" guidetolerance="10" inkscape:window-maximized="0" inkscape:current-layer="Layer_1" inkscape:window-y="504" inkscape:window-x="1276" inkscape:window-height="829" inkscape:window-width="957" inkscape:pageopacity="0" inkscape:pageshadow="2" inkscape:showpageshadow="false">
	</sodipodi:namedview>
<defs>
	
	
		<inkscape:perspective  id="perspective2929" inkscape:vp_y="0 : 1000 : 0" sodipodi:type="inkscape:persp3d" inkscape:vp_x="0 : 297.64001 : 1" inkscape:vp_z="841.89001 : 297.64001 : 1" inkscape:persp3d-origin="420.94501 : 198.42668 : 1">
		</inkscape:perspective>
</defs>
<sodipodi:namedview  id="namedview2923" borderopacity="1" inkscape:cy="40.494405" bordercolor="#666666" objecttolerance="10" showgrid="false" inkscape:cx="69.471741" inkscape:zoom="2" pagecolor="#ffffff" gridtolerance="10" guidetolerance="10" inkscape:window-maximized="0" inkscape:current-layer="Layer_1" inkscape:window-y="504" inkscape:window-x="1276" inkscape:window-height="829" inkscape:window-width="957" inkscape:pageopacity="0" inkscape:pageshadow="2" inkscape:showpageshadow="false">
	</sodipodi:namedview>
<g>
	<g>
		<path fill="#231F20" d="M35.636,54.886V43.233h11.659c1.005-3.913,4.526-6.805,8.746-6.805c4.221,0,7.737,2.892,8.752,6.805h7.12
			v-7.128c-3.905-1.007-6.802-4.53-6.802-8.744c0-0.339,0.066-0.658,0.102-0.987C37.602,26.759,17.446,35.928-0.39,45.503
			c9.309,4.998,19.258,9.876,30.553,13.468C31.376,56.981,33.32,55.487,35.636,54.886z"/>
		<path fill="#231F20" d="M69.646,27.361c0,2.504,2.038,4.535,4.54,4.535s4.534-2.035,4.534-4.535c0-0.161-0.03-0.316-0.048-0.474
			c-3.057-0.262-6.028-0.414-8.924-0.477C69.686,26.719,69.646,27.036,69.646,27.361z"/>
		<path fill="#231F20" d="M97.498,29.613c-4.955-1.019-9.677-1.736-14.242-2.268c0,0.005,0,0.009,0,0.016
			c0,4.223-2.896,7.741-6.807,8.744v11.663H64.794c-1.011,3.906-4.531,6.803-8.752,6.803c-4.22,0-7.741-2.896-8.746-6.803h-7.125
			v7.117c3.719,0.961,6.487,4.202,6.752,8.146c14.344,2.385,30.846,2.413,50.579-1.646c2.98-4.179,2.888-6.688,2.888-15.884
			C100.39,36.305,100.483,33.798,97.498,29.613z"/>
		<path fill="#231F20" d="M37.908,59.102c-1.213,0-2.312,0.481-3.126,1.258c2.389,0.659,4.863,1.23,7.38,1.756
			C41.535,60.363,39.877,59.102,37.908,59.102z"/>
		<circle fill="#231F20" cx="56.042" cy="45.501" r="4.535"/>
	</g>
	<g>
		<path d="M69.749,26.411c0.438-2.048,2.259-3.584,4.438-3.584c2.347,0,4.246,1.782,4.486,4.061c1.51,0.128,3.033,0.277,4.583,0.458
			c-0.009-5.002-4.065-9.054-9.069-9.054c-4.673,0-8.477,3.545-8.973,8.083C66.697,26.354,68.221,26.38,69.749,26.411z"/>
		<path d="M42.162,62.115c0.17,0.478,0.281,0.985,0.281,1.521c0,2.505-2.033,4.54-4.535,4.54c-2.502,0-4.539-2.03-4.539-4.54
			c0-1.29,0.547-2.448,1.413-3.276c-1.57-0.433-3.098-0.906-4.619-1.389c-0.83,1.361-1.329,2.949-1.329,4.665
			c0,5.014,4.061,9.074,9.07,9.074s9.069-4.061,9.069-9.074c0-0.205-0.035-0.402-0.049-0.604
			C45.303,62.762,43.726,62.442,42.162,62.115z"/>
	</g>
</g>
</svg>
